<svg width="223" height="280" viewBox="0 0 223 280" fill="none" xmlns="http://www.w3.org/2000/svg">
<path d="M213.227 107.545C214.276 107.014 215.664 107.492 216.197 108.568L220.048 116.348C220.521 117.303 220.135 118.376 219.17 118.793L194.947 129.239C193.837 129.718 192.448 129.132 192.01 128L189.448 121.372C189.109 120.494 189.462 119.564 190.293 119.144L213.227 107.545Z" fill="#1E293B"/>
<path fill-rule="evenodd" clip-rule="evenodd" d="M172.407 121.654L178.682 126.991L186.629 129.413C192.608 129.808 204.135 128.076 208.575 127.317C209.72 126.907 211.333 125.864 207.649 125.015C203.965 124.166 200.135 123.131 200.075 121.94C200.016 120.749 202.706 120.159 202.293 118.451C202.018 117.313 194.617 119.677 186.629 123.609L168.9 108.356L172.407 121.654Z" fill="#B28B67"/>
<path fill-rule="evenodd" clip-rule="evenodd" d="M114.737 25.6899C113.725 20.8764 114.248 15.8418 117.637 11.5734C127.4 -0.725048 146.27 12.2787 145.915 20.7262C145.559 29.1738 133.92 45.3407 127.908 43.9359C125.51 43.3756 121.839 40.0712 118.91 35.5205L110.035 54.1254L93.2878 45.9198L114.737 25.6899Z" fill="#B28B67"/>
<path fill-rule="evenodd" clip-rule="evenodd" d="M137.866 18.0696C134.847 18.0456 131.835 19.2972 128.059 21.0247C127.693 20.6318 127.235 20.2904 126.694 20.0252C124.378 18.89 121.405 19.5795 120.054 21.5652C119.368 22.5732 119.232 23.7215 119.568 24.7564C117.799 25.4551 115.877 26.1487 113.769 26.8037C110.745 22.1325 112.028 13.4658 121.047 8.91189C134.038 -2.69657 149.997 16.2807 155.709 16.0483C153.292 21.3865 147.672 23.8919 137.866 18.0696Z" fill="#191847"/>
<path fill-rule="evenodd" clip-rule="evenodd" d="M95.2217 115.16L134.95 200.842L161.596 273.279H172.118L131.382 115.16L95.2217 115.16Z" fill="#997659"/>
<path fill-rule="evenodd" clip-rule="evenodd" d="M87.2214 115.16C86.7984 145.269 80.6288 185.807 79.6431 187.683C78.9859 188.935 56.3007 204.846 11.5874 235.419L18.8344 242.027C71.592 215.815 99.1914 200.961 101.633 197.465C105.295 192.221 117.217 143.965 126.789 115.16H87.2214Z" fill="#B28B67"/>
<path fill-rule="evenodd" clip-rule="evenodd" d="M10.6034 233.208C8.17238 233.938 6.49797 234.631 5.58023 235.287C4.46404 236.085 2.99167 237.408 1.16311 239.257C2.25234 240.363 12.0415 250.302 30.5304 269.074C34.2928 267.705 35.4715 266.1 34.0664 264.26C32.6613 262.419 31.5114 260.878 30.6165 259.636L24.2007 240.606C24.0773 240.24 23.6291 240.027 23.1998 240.132C23.1925 240.134 23.1852 240.135 23.1779 240.137L19.7704 241.055C17.404 240.113 15.745 239.159 14.7933 238.193C14.0202 237.408 13.3236 236.059 12.7037 234.145C12.4658 233.41 11.5748 232.978 10.7136 233.178C10.6765 233.187 10.6397 233.197 10.6034 233.208Z" fill="#E4E4E4"/>
<path fill-rule="evenodd" clip-rule="evenodd" d="M157.288 269.933C156.382 271.993 155.929 273.534 155.929 274.556C155.929 275.8 156.173 277.615 156.659 280.001C158.352 280.001 173.57 280.001 202.312 280.001C203.499 276.659 202.814 274.855 200.258 274.588C197.702 274.322 195.578 274.081 193.888 273.867L172.669 265.806C172.26 265.651 171.782 265.807 171.6 266.155C171.597 266.161 171.593 266.167 171.591 266.173L170.227 268.992C167.86 269.933 165.938 270.404 164.458 270.404C163.256 270.404 161.596 269.99 159.478 269.163C158.666 268.845 157.705 269.149 157.332 269.842C157.316 269.872 157.301 269.902 157.288 269.933Z" fill="#E4E4E4"/>
<path fill-rule="evenodd" clip-rule="evenodd" d="M121.933 265.818L171.96 261.192L134.884 115.16H90.0775L121.933 265.818Z" fill="#69A1AC"/>
<path fill-rule="evenodd" clip-rule="evenodd" d="M21.9357 224.757L54.7501 257.854C89.3129 225.688 109.463 204.7 115.201 194.889C120.938 185.079 126.096 158.502 130.674 115.16H80.2295C77.7288 153.291 76.0431 173.243 75.1725 175.018C74.3019 176.792 56.5563 193.372 21.9357 224.757Z" fill="#89C5CC"/>
<path fill-rule="evenodd" clip-rule="evenodd" d="M51.9268 89.041L70.3151 89.0994C56.31 127.514 48.8756 147.628 48.012 149.44C46.0689 153.517 50.1808 159.726 51.9392 163.063C46.2121 165.232 46.8223 157.197 39.5977 160.043C33.0034 162.64 27.9871 167.346 20.3684 163.366C19.4317 162.877 18.4053 161.035 20.8853 159.595C27.064 156.008 35.9678 149.731 37.1708 147.664C38.8114 144.847 43.73 125.306 51.9268 89.041Z" fill="#B28B67"/>
<path fill-rule="evenodd" clip-rule="evenodd" d="M107.959 44.8766L115.22 43.8222C126.659 78.0555 185.432 101.39 189.04 114.188C190.363 118.881 186.373 121.253 188.434 122.682L178.996 128.532C177.397 126.953 173.987 129.841 166.864 127.821C159.741 125.801 107.959 85.4117 107.959 44.8766Z" fill="#DB2721"/>
<path fill-rule="evenodd" clip-rule="evenodd" d="M120.173 49.4277C119.336 94.75 150.283 106.311 143.389 124.492C137.697 139.506 83.2132 155.646 73.785 140.929C69.9686 134.972 68.2371 127.767 68.0407 119.933C65.631 125.952 63.7253 131.132 62.3234 135.476C59.905 142.969 50.5292 144.16 50.5292 147.047L38.1769 144.16C39.0147 140.239 33.1915 138.329 34.7528 129.568C41.7486 90.3112 60.545 61.8554 91.1421 44.2003L91.4657 40.2831C91.594 38.7643 93.14 37.6192 94.9229 37.7223L117.783 39.0756C119.567 39.1787 120.912 40.4966 120.788 42.0166C120.788 42.0166 120.788 42.0182 120.785 42.0189L120.173 49.4277Z" fill="#FF4133"/>
</svg>
