<svg width="138" height="177" viewBox="0 0 138 177" fill="none" xmlns="http://www.w3.org/2000/svg">
<path fill-rule="evenodd" clip-rule="evenodd" d="M82.3342 78.4565C81.6441 87.9206 37.1866 115.784 36.9272 116.566C36.8119 116.913 41.4246 127.897 50.7652 149.516L46.8789 151.034C32.552 128.137 25.7566 115.469 26.4924 113.029C27.546 109.536 39.044 98.0455 60.9864 78.5571L82.3342 78.4565Z" fill="#B28B67"/>
<path fill-rule="evenodd" clip-rule="evenodd" d="M49.7425 144.634L43.3976 146.955C30.0184 131.787 24.7741 119.271 25.7303 112.895C26.3678 108.644 37.8261 97.172 60.1053 78.4801L82.7892 78.4801C82.0152 100.397 40.8087 116.65 40.2575 117.584C39.7064 118.518 45.1304 127.665 49.7425 144.634Z" fill="#2F3676"/>
<path fill-rule="evenodd" clip-rule="evenodd" d="M52.2009 148.767C52.9931 149.697 53.486 150.429 53.6794 150.964C53.9147 151.614 54.1499 152.603 54.3852 153.93C53.6325 154.206 46.8681 156.683 34.0919 161.362C32.9323 159.808 32.8954 158.753 33.9812 158.197C35.067 157.642 35.9653 157.17 36.6762 156.783L44.5835 149.113C44.7356 148.965 44.9779 148.969 45.1246 149.121C45.1272 149.124 45.1296 149.127 45.1321 149.129L46.2717 150.382C47.5015 150.488 48.4451 150.421 49.1027 150.181C49.637 149.985 50.2966 149.498 51.0815 148.721C51.3828 148.423 51.8674 148.425 52.164 148.727C52.1768 148.74 52.1891 148.753 52.2009 148.767Z" fill="#E4E4E4"/>
<path fill-rule="evenodd" clip-rule="evenodd" d="M77.2225 78.4561L97.0271 126.23L116.492 166.618H111.9L61.6555 78.4561H77.2225Z" fill="#997659"/>
<path fill-rule="evenodd" clip-rule="evenodd" d="M116.767 164.754C117.195 165.903 117.409 166.762 117.409 167.332C117.409 168.026 117.294 169.038 117.064 170.368C116.263 170.368 109.068 170.368 95.4774 170.368C94.9165 168.505 95.2403 167.499 96.4489 167.35C97.6575 167.202 98.6614 167.067 99.4609 166.948L109.494 162.453C109.687 162.367 109.913 162.454 109.999 162.648C110.001 162.651 110.002 162.655 110.004 162.658L110.649 164.23C111.768 164.755 112.677 165.017 113.376 165.017C113.945 165.017 114.729 164.786 115.731 164.325C116.115 164.148 116.569 164.317 116.746 164.704C116.753 164.72 116.76 164.737 116.767 164.754Z" fill="#E4E4E4"/>
<path fill-rule="evenodd" clip-rule="evenodd" d="M114.734 158.228L104.53 160.151C96.6399 148.495 63.6201 100.704 59.9998 78.4561H82.7169C94.807 94.5391 107.213 146.38 114.734 158.228Z" fill="#5C63AB"/>
<path fill-rule="evenodd" clip-rule="evenodd" d="M47.0172 64.7295L34.8088 73.7375C31.4977 74.6352 28.7313 75.7522 26.5098 77.0884C25.985 77.5688 25.3507 78.5419 27.5271 78.3737C29.7035 78.2056 31.6999 78.2541 32.0002 79C32.0002 80 30.8931 80.4936 31.5002 81.5C31.9048 82.1709 34.2074 80.5058 37.6265 76.4702L49.716 71.4329L47.0172 64.7295Z" fill="#B28B67"/>
<path fill-rule="evenodd" clip-rule="evenodd" d="M50.0779 31.7925L37.2048 23.8C35.141 21.0531 33.0778 18.8956 31.0152 17.3276C30.3757 17.019 29.2403 16.7931 30.207 18.7568C31.1738 20.7204 32.1026 22.8297 31.5254 23.3889C30.9483 23.9481 29.6333 23.056 28.9298 23.9985C28.4609 24.6268 30.7278 25.7766 35.7307 27.448L44.8913 36.818L50.0779 31.7925Z" fill="#B28B67"/>
<path fill-rule="evenodd" clip-rule="evenodd" d="M65.5337 40.4707C58.8854 52.9267 49.9373 61.5741 36.0001 71.5L41.5001 77.5C57.0615 71.6892 64.3862 69.0631 68.4194 57.2948C69.4316 54.3412 70.1391 44.9256 70.746 39.9716L65.5337 40.4707Z" fill="#2026A2"/>
<path fill-rule="evenodd" clip-rule="evenodd" d="M84.1192 81.9706H54.6492C61.3247 61.5137 64.7347 47.4733 64.8794 39.8495C64.8868 39.4608 65.6012 38.7759 65.9173 38.8656C68.2286 39.5215 70.7018 39.2763 73.3371 38.1299C80.3235 49.4202 82.7396 63.3208 84.1192 81.9706Z" fill="#F2F2F2"/>
<path fill-rule="evenodd" clip-rule="evenodd" d="M70.8223 38.1483C62.3748 38.2178 51.5003 33.5 38.0003 21.5L35.0003 31C46.9464 38.7201 55.3454 56.2044 65.9449 55.3551C61.3422 75.1936 61.5544 91.4334 71.716 91.4334C76.5687 91.4334 81.8065 91.4334 87.4294 91.4334C89.925 74.5809 83.366 51.2144 77.2853 39.4286C77.0531 38.9785 76.5587 38.1301 75.3942 38.1301C74.3796 38.1301 72.8576 38.1301 70.8283 38.1301C70.8263 38.1361 70.8243 38.1422 70.8223 38.1483Z" fill="#1F28CF"/>
<path fill-rule="evenodd" clip-rule="evenodd" d="M71.7925 31.8234C73.5561 29.7433 74.7497 27.1942 74.5503 24.3379C73.9756 16.1079 62.574 17.9184 60.3562 22.0722C58.1384 26.2259 58.4019 36.7623 61.2683 37.5047C62.4114 37.8008 64.8465 37.0755 67.3249 35.5745L65.7692 46.633H74.9547L71.7925 31.8234Z" fill="#B28B67"/>
<path d="M61.5725 20.6523C61.3679 20.7214 61.5725 19.8369 62.0618 19.5134C63.5624 18.5213 68.0293 17.0531 71.0839 17.6903C73.1301 18.1171 75.6821 19.1884 77.3165 20.5541C78.7899 21.7853 80.1306 23.9559 80.6522 25.8628C81.2 27.865 81.407 30.6511 80.6522 32.398C79.7533 34.4784 76.5698 36.7206 76.4856 37.0184C76.3895 37.3582 76.7658 38.6857 77.0412 40.0845C77.3165 41.4834 77.1912 45.045 77.0412 45.6259C76.8014 46.5542 75.5155 47.0106 74.9547 47.0777C71.8545 47.449 69.6072 51.3161 68.6719 52.3056C64.5087 56.5054 61.6032 58.3319 59.9554 57.785C59.5216 57.6411 60.1717 52.4226 60.6054 50.1858C61.0392 47.9491 65.2928 43.9576 65.5652 42.6422C65.7257 41.8673 65.7524 40.5184 65.7692 40.4569C66.1704 37.6779 66.1013 37.452 66.6865 36.3196C67.2717 35.1872 67.7254 35.1208 67.5848 34.7909C66.8976 33.1791 64.6875 28.2476 64.1861 26.635C63.5885 24.7131 63.8709 25.3444 63.2548 23.429C62.982 22.5808 62.6349 20.2936 61.5725 20.6523Z" fill="#727272"/>
<path fill-rule="evenodd" clip-rule="evenodd" d="M69.4755 20.8662C70.1469 23.0067 70.2913 24.1493 70.1469 27.0739H70.4763C71.0915 24.3139 70.5439 21.7157 69.8895 20.8662H69.4755ZM78.4826 26.3903C77.2315 29.4407 76.6611 31.242 73.1673 33.7104L73.4371 33.9003C76.9054 31.9252 77.9154 29.5692 78.7458 26.5173L78.4826 26.3903ZM73.3421 23.286C72.7738 27.6158 72.6079 30.0889 69.6476 34.8251L69.9626 34.9219C73.0092 30.7981 73.4922 27.4324 73.6361 23.3098L73.3421 23.286ZM76.6121 36.1475L76.3426 35.8184C72.6656 36.9756 73.0752 39.3648 68.444 41.7844L68.831 42.0201C72.8863 40.3384 73.8342 36.7317 76.6121 36.1475Z" fill="black" fill-opacity="0.2"/>
</svg>
