<svg width="232" height="280" viewBox="0 0 232 280" fill="none" xmlns="http://www.w3.org/2000/svg">
<g clip-path="url(#clip0_569_8970)">
<path d="M155.169 25.801L136.338 47.8306L148.874 53.7694L160.063 31.4769C168.243 25.4932 171.713 22.0766 170.475 21.2272C168.619 19.953 166.741 22.3394 165.346 21.6786C163.951 21.0178 164.39 16.6747 164.986 12.5708C165.581 8.46683 163.633 9.54921 162.645 10.4847C159.8 14.5307 157.308 19.6361 155.169 25.801Z" fill="#915B3C"/>
<path fill-rule="evenodd" clip-rule="evenodd" d="M82.2099 93.4717L80.7459 87.259C86.1094 78.3998 134.833 55.2206 154 25.5L160.5 31.5C157.163 81.3619 116.274 92.5319 82.2099 93.4717Z" fill="#297B00"/>
<path fill-rule="evenodd" clip-rule="evenodd" d="M74.5578 66.3255C71.1526 62.388 68.848 57.5624 69.2331 52.1553C70.3427 36.5758 92.3569 40.0031 96.6391 47.8663C100.921 55.7295 100.413 75.6751 94.8781 77.0805C92.671 77.641 87.9692 76.2681 83.1839 73.4266L86.1876 94.3607H68.4521L74.5578 66.3255Z" fill="#915B3C"/>
<path fill-rule="evenodd" clip-rule="evenodd" d="M73.1946 69.8319C70.9686 60.076 64.6272 53.4257 65.5957 49.0652C66.2414 46.1582 67.9622 44.3504 70.7583 43.6419C72.2044 37.8786 76.8684 35.4272 84.7503 36.2878C96.5731 37.5787 103.789 42.4157 100.673 53.0591C97.8084 53.0591 94.3502 52.0385 89.5684 53.7871C88.0511 54.3419 86.9659 56.0624 86.3128 58.9487H84.1519C82.0546 55.5235 79.9867 54.2648 77.9482 55.1727C75.9096 56.0806 75.4462 58.2858 76.558 61.7883L75.4935 69.8319H73.1946Z" fill="#191847"/>
<path fill-rule="evenodd" clip-rule="evenodd" d="M18.9401 185.36H103.922C110.452 185.36 115.746 190.575 115.746 197.008V263.984C115.746 270.417 110.452 275.632 103.922 275.632H18.9401C12.4101 275.632 7.11646 270.417 7.11646 263.984V197.008C7.11646 190.575 12.4101 185.36 18.9401 185.36ZM30.7637 205.744C29.1312 205.744 27.8078 207.048 27.8078 208.656V252.336C27.8078 253.944 29.1312 255.248 30.7637 255.248H92.0986C93.7311 255.248 95.0545 253.944 95.0545 252.336V208.656C95.0545 207.048 93.7311 205.744 92.0986 205.744H30.7637Z" fill="#C5CFD6"/>
<path fill-rule="evenodd" clip-rule="evenodd" d="M189.022 271.993C174.452 254.466 164.594 241.472 159.447 233.012C150.635 218.525 143.423 205.635 141.147 200.711C135.719 188.969 153.642 183.47 157.698 188.947C163.837 197.237 176.949 223.321 197.033 267.201L189.022 271.993Z" fill="#B28B67"/>
<path fill-rule="evenodd" clip-rule="evenodd" d="M159.166 266.897L132.051 199.656C126.252 187.399 154.258 179.342 158.52 185.046C168.196 197.997 191.194 249.085 194.077 252.944L159.166 266.897Z" fill="#2F3676"/>
<path fill-rule="evenodd" clip-rule="evenodd" d="M86.9491 253.443C92.237 245.85 111.468 220.303 121.937 209.728C124.945 206.689 127.881 203.773 130.657 201.055C138.909 192.976 155.296 206.509 147.06 213.869C126.55 232.197 96.6272 256.943 94.1269 259.149C90.6226 262.241 83.6259 258.215 86.9491 253.443Z" fill="#915B3C"/>
<path fill-rule="evenodd" clip-rule="evenodd" d="M88.2175 249.999C86.3921 251.484 85.2038 252.696 84.6525 253.636C83.9821 254.778 83.1958 256.553 82.2936 258.963C83.6306 259.722 95.6471 266.546 118.343 279.434C121.081 276.897 121.513 274.933 119.638 273.542C117.764 272.152 116.217 270.978 114.997 270.023L102.587 253.106C102.348 252.78 101.886 252.709 101.555 252.947C101.549 252.951 101.543 252.955 101.538 252.96L98.9412 254.937C96.5656 254.74 94.7938 254.31 93.6256 253.646C92.6765 253.107 91.5887 251.983 90.3623 250.274C89.8917 249.618 88.969 249.466 88.3015 249.935C88.2728 249.955 88.2447 249.976 88.2175 249.999Z" fill="#E4E4E4"/>
<path fill-rule="evenodd" clip-rule="evenodd" d="M182.754 269.372C181.928 271.546 181.514 273.173 181.514 274.252C181.514 275.565 181.736 277.481 182.18 279.999C183.726 279.999 197.619 279.999 223.86 279.999C224.943 276.472 224.318 274.568 221.984 274.286C219.65 274.005 217.712 273.751 216.168 273.524L196.796 265.016C196.423 264.853 195.987 265.018 195.82 265.385C195.817 265.391 195.815 265.397 195.812 265.404L194.567 268.38C192.407 269.373 190.651 269.869 189.301 269.869C188.203 269.869 186.688 269.432 184.754 268.559C184.012 268.224 183.135 268.545 182.795 269.276C182.78 269.308 182.767 269.34 182.754 269.372Z" fill="#E4E4E4"/>
<path fill-rule="evenodd" clip-rule="evenodd" d="M122.294 203.015C99.758 199.398 84.6628 196.925 77.0088 195.595C55.192 191.805 48.83 180.24 52.5915 155.005H92.7887C98.1081 156.518 120.335 165.878 159.469 183.083C166.51 186.527 165.199 196.679 163.912 200.024C163.859 200.161 151.989 220.198 128.302 260.135L95.4194 239.499L122.356 205.447C123.067 204.035 123.047 203.224 122.294 203.015Z" fill="#5C63AB"/>
<path fill-rule="evenodd" clip-rule="evenodd" d="M34.6863 146.063L50.1289 146.123C40.5938 176.447 35.4463 192.537 34.6863 194.392C32.9763 198.567 36.5948 204.925 38.1422 208.342C33.1024 210.563 33.6394 202.336 27.2817 205.249C21.4788 207.909 17.0645 212.728 10.36 208.653C9.53577 208.152 8.6325 206.265 10.8149 204.791C16.2521 201.118 24.0874 194.69 25.1461 192.574C26.5898 189.689 29.7699 174.185 34.6863 146.063Z" fill="#915B3C"/>
<path fill-rule="evenodd" clip-rule="evenodd" d="M50.7163 161.337C76.3379 161.337 95.1846 161.337 107.256 161.337C109.84 161.337 109.353 157.661 108.98 155.807C104.669 134.403 87.8434 111.331 87.8434 80.8641L71.5346 78.3447C58.0451 99.7176 53.3802 126.032 50.7163 161.337Z" fill="#DDE3E9"/>
<path fill-rule="evenodd" clip-rule="evenodd" d="M51.1707 99.3533C48.802 98.6825 46.9263 97.1181 45.5435 94.6601C39.5826 84.064 41.7353 78.23 48.1057 76.3124C54.476 74.3947 60.157 78.3448 70.3066 78.3448C70.8586 78.3448 71.3643 78.3788 71.8234 78.447L76.9289 78.734C91.5772 127.641 95.6171 160.271 89.0487 176.625H44.5472C41.9106 182.681 39.3875 187.777 36.978 191.912H24.8522C23.711 155.561 32.4838 124.708 51.1707 99.3533Z" fill="#297B00"/>
<path fill-rule="evenodd" clip-rule="evenodd" d="M54.2378 151.507C55.6374 163.043 57.9122 171.416 61.0621 176.624H44.5474C47.623 169.559 50.8531 161.187 54.2378 151.507Z" fill="black" fill-opacity="0.1"/>
</g>
<defs>
<clipPath id="clip0_569_8970">
<rect width="232" height="280" fill="white"/>
</clipPath>
</defs>
</svg>
