<svg width="140" height="177" viewBox="0 0 140 177" fill="none" xmlns="http://www.w3.org/2000/svg">
<path fill-rule="evenodd" clip-rule="evenodd" d="M92.7528 24.7633L101.632 11.7339C102.444 8.25237 103.501 5.33125 104.804 2.97052C105.282 2.40729 106.265 1.71329 106.167 3.98732C106.069 6.26135 106.067 8.65781 106.848 8.94552C107.629 9.23324 108.504 7.83035 109.564 8.42893C110.271 8.82798 108.6 10.8777 104.551 14.578L99.769 27.349L92.7528 24.7633Z" fill="#B28B67"/>
<path d="M68.5526 46.5526L64.0425 35.9788L58.5429 33.4569L59.2977 49.0352L68.5526 46.5526Z" fill="#B28B67"/>
<path d="M52.4808 28.6401C53.5013 31.4042 55.7156 33.2808 58.2728 34.4723L64.1078 36.0673C67.0991 36.4084 69.7206 36.0407 70.6815 35.2712C73.0911 33.3418 68.878 23.349 65.0105 20.4085C61.1431 17.468 49.5405 20.6761 52.4808 28.6401Z" fill="#B28B67"/>
<path fill-rule="evenodd" clip-rule="evenodd" d="M60.0141 25.3603C62.1743 29.9556 63.9885 31.9702 65.4568 31.4041C67.6593 30.5549 68.9948 28.4478 69.9613 28.0752C70.6657 27.8036 70.8447 28.7385 70.627 29.5667C70.4473 30.25 68.7693 31.4889 69.0882 32.318C69.407 33.147 71.2117 31.7583 71.4008 32.25C71.7136 33.0634 72.1001 34.3531 70.8308 35.2169C69.3731 36.2089 65.2212 37.6058 63.6979 35.7584C62.7148 34.5661 60.9058 31.0828 59.1172 26.8315C59.0258 26.8549 58.9348 26.8839 58.8446 26.9187C57.6103 27.3946 56.9912 28.7727 57.4619 29.9968C57.7009 30.6182 58.1748 31.0805 58.745 31.3227C58.5062 32.246 58.2174 33.2256 57.8533 34.262C54.7874 33.7395 51.2649 30.1079 52.0988 24.993C51.9866 22.688 53.0929 21.0072 54.7006 19.805C55.9279 18.6363 57.4175 17.9835 58.8368 17.8533C61.4273 17.0995 63.9589 16.9944 64.7669 17.2001C65.6725 19.5551 65.4811 20.4312 61.5271 21.885C60.7558 22.7631 60.3483 23.9203 60.0141 25.3603Z" fill="#191847"/>
<path fill-rule="evenodd" clip-rule="evenodd" d="M62.0222 54.5157C60.6987 54.3775 59.5528 53.7126 58.5845 52.521C54.4106 47.384 55.0035 44.0452 58.2106 42.4158C61.4178 40.7864 64.8137 42.3765 70.2128 41.4231C70.5064 41.3712 70.7786 41.3421 71.0293 41.3356L73.7724 41.0103C86.1942 65.9289 91.4321 83.0928 89.486 92.5019L64.7389 91.0008C63.9096 94.5048 65.6291 88.5512 64.7389 91.0008C60.6907 71.5641 54.4819 69.9029 62.0222 54.5157Z" fill="#E87613"/>
<path fill-rule="evenodd" clip-rule="evenodd" d="M63.7928 81.2861L83.3805 130.716L96.518 172.504H101.706L81.6213 81.2861L63.7928 81.2861Z" fill="#997659"/>
<path fill-rule="evenodd" clip-rule="evenodd" d="M59.8486 81.2861C59.64 98.656 56.5981 122.042 56.1121 123.124C55.7881 123.846 44.6034 133.026 22.558 150.662L26.1311 154.475C52.1426 139.353 65.7503 130.784 66.9539 128.767C68.7595 125.742 74.6377 97.9035 79.3571 81.2861H59.8486Z" fill="#B28B67"/>
<path fill-rule="evenodd" clip-rule="evenodd" d="M22.0569 149.383C20.8568 149.807 20.0301 150.21 19.5767 150.591C19.0254 151.054 18.2979 151.821 17.3942 152.893C17.9308 153.534 22.7535 159.286 31.8622 170.151C33.7197 169.355 34.3025 168.425 33.6106 167.359C32.9187 166.294 32.3524 165.402 31.9119 164.682L28.7605 153.66C28.6999 153.448 28.4789 153.326 28.267 153.386C28.2634 153.387 28.2598 153.388 28.2562 153.39L26.5741 153.924C25.4072 153.379 24.5893 152.828 24.1205 152.268C23.7396 151.814 23.3969 151.033 23.0925 149.924C22.9756 149.499 22.5363 149.249 22.1113 149.366C22.0929 149.371 22.0748 149.376 22.0569 149.383Z" fill="#E4E4E4"/>
<path fill-rule="evenodd" clip-rule="evenodd" d="M94.3938 170.614C93.9473 171.807 93.7241 172.7 93.7241 173.292C93.7241 174.012 93.844 175.063 94.0837 176.445C94.9186 176.445 102.422 176.445 116.593 176.445C117.178 174.51 116.84 173.465 115.58 173.31C114.32 173.156 113.273 173.017 112.439 172.892L101.977 168.224C101.776 168.134 101.54 168.225 101.45 168.426C101.449 168.43 101.447 168.433 101.446 168.437L100.773 170.069C99.6065 170.614 98.6585 170.887 97.9291 170.887C97.3364 170.887 96.518 170.647 95.4738 170.168C95.0731 169.984 94.5993 170.16 94.4157 170.561C94.4077 170.579 94.4004 170.596 94.3938 170.614Z" fill="#E4E4E4"/>
<path fill-rule="evenodd" clip-rule="evenodd" d="M76.9626 168.2L101.628 165.531L83.3479 81.2861H61.2563L76.9626 168.2Z" fill="#69A1AC"/>
<path fill-rule="evenodd" clip-rule="evenodd" d="M27.6599 144.512L43.8387 163.605C60.8795 145.049 70.8144 132.941 73.6432 127.281C76.4721 121.622 79.0151 106.29 81.2722 81.2861H56.4011C55.1681 103.283 54.337 114.794 53.9078 115.817C53.4786 116.841 44.7293 126.406 27.6599 144.512Z" fill="#89C5CC"/>
<path fill-rule="evenodd" clip-rule="evenodd" d="M46.2646 80.9388L54.4838 79.5206C52.2825 96.7167 51.0675 105.849 50.8389 106.918C50.3246 109.323 52.8509 112.401 53.9973 114.092C51.5271 115.759 51.0339 111.286 47.9283 113.45C45.0935 115.424 43.2018 118.429 39.2501 116.868C38.7643 116.676 38.1053 115.747 39.1266 114.75C41.6708 112.265 45.2298 108.073 45.5926 106.837C46.0874 105.15 46.3114 96.5174 46.2646 80.9388Z" fill="#B28B67"/>
<path fill-rule="evenodd" clip-rule="evenodd" d="M60.3758 53.4689L59.4459 50.0927C69.132 36.2595 89.6643 28.931 99.2567 12.2017L104.5 16C103.869 43.4297 78.6296 52.2005 60.3758 53.4689Z" fill="#E87613"/>
<path fill-rule="evenodd" clip-rule="evenodd" d="M56.2308 87.6397C69.8598 85.233 79.8849 83.4627 86.3063 82.3288C87.6806 82.0861 87.0738 80.1559 86.6996 79.1939C82.3807 68.0916 82.0002 56 68.3624 40.8876L59.4487 41.065C54.2963 53.8229 54.3058 68.4085 56.2308 87.6397Z" fill="#DDE3E9"/>
<path fill-rule="evenodd" clip-rule="evenodd" d="M50.6077 54.2717C49.2842 54.1336 48.1384 53.4687 47.1701 52.277C42.9961 47.1401 43.589 43.8013 46.7962 42.1719C50.0033 40.5425 53.3993 42.1325 58.7983 41.1791C59.092 41.1273 59.3642 41.0981 59.6149 41.0917L62.3579 40.7664C74.7798 65.685 80.0176 82.8489 78.0716 92.258L54.3991 96.4381C53.5699 99.9422 52.7102 102.919 51.8199 105.369L45.3696 106.508C41.3214 87.071 43.0675 69.659 50.6077 54.2717Z" fill="#FF9B21"/>
<path fill-rule="evenodd" clip-rule="evenodd" d="M57.1787 82.0243C59.0152 88.0951 61.0178 92.3828 63.1864 94.8875L54.4016 96.4388C55.3688 92.3514 56.2945 87.5466 57.1787 82.0243Z" fill="black" fill-opacity="0.1"/>
</svg>
