<svg width="43" height="24" viewBox="0 0 43 24" fill="none" xmlns="http://www.w3.org/2000/svg">
<g clip-path="url(#clip0_711_8871)">
<path d="M33.2391 12.2219C33.2391 11.4431 32.738 10.9872 32.015 10.9872C31.2697 10.9872 30.7691 11.4545 30.7691 12.2332C30.7691 12.9673 31.2697 13.5019 32.015 13.5019C32.7939 13.5019 33.2391 12.9232 33.2391 12.2219ZM35.3974 12.2219C35.3974 13.9576 33.9512 15.1035 32.0038 15.1035C29.9902 15.1035 28.5215 13.891 28.5215 11.1428C28.5215 8.78426 30.0279 6.84064 32.2568 6.80355C33.233 6.80355 35.3312 6.75735 35.3312 6.75735L34.3865 8.49193C34.3865 8.49193 32.7151 8.49462 32.4937 8.49462C31.5317 8.49462 30.6577 9.21806 30.5351 10.2084C31.0469 9.72991 31.7257 9.45163 32.5491 9.45163C34.3295 9.45163 35.3974 10.5422 35.3974 12.2219Z" fill="#141630"/>
<path d="M26.8542 13.0628C26.8542 13.0628 26.3458 13.3488 25.5871 13.4037C24.7141 13.4284 23.9377 12.8914 23.9377 11.9346C23.9377 11.0006 24.6244 10.466 25.5651 10.466C26.1426 10.466 26.907 10.8573 26.907 10.8573C26.907 10.8573 27.4655 9.85471 27.7553 9.35408C27.2255 8.9608 26.5182 8.74563 25.6979 8.74563C23.6246 8.74563 22.0195 10.0667 22.0195 11.9229C22.0195 13.8021 23.5283 15.0931 25.6979 15.0538C26.3048 15.0311 27.1413 14.8238 27.6506 14.5043L26.8542 13.0628Z" fill="#141630"/>
<path d="M0.0498047 5.23238L2.95567 10.4089L2.95582 13.5651L0.0545897 18.7314L0.0498047 5.23238Z" fill="#5454AE"/>
<path d="M11.2041 8.52509L13.9259 6.86199L19.4954 6.8578L11.2041 11.9219V8.52509Z" fill="#DD1059"/>
<path d="M11.1886 5.2025L11.2037 12.0547L8.29199 10.2718V0.027173L11.1886 5.2025Z" fill="#F9AD1C"/>
<path d="M19.4958 6.85812L13.9263 6.8623L11.1896 5.20294L8.29297 0.0276132L19.4958 6.85812Z" fill="#F36228"/>
<path d="M11.2042 18.7602V15.4351L8.29297 13.6858L8.29342 23.9395L11.2042 18.7602Z" fill="#58C034"/>
<path d="M13.9188 17.1123L2.95567 10.4086L0.0498047 5.23208L19.484 17.1059L13.9188 17.1123Z" fill="#3E88D0"/>
<path d="M8.29297 23.9395L11.2038 18.7602L13.9188 17.1124L19.484 17.106L8.29297 23.9395Z" fill="#27843B"/>
<path d="M0.0546875 18.7314L8.31532 13.6862L5.53745 11.9875L2.95577 13.5649L0.0546875 18.7314Z" fill="#8D3CA2"/>
<path d="M42.6251 8.90186V14.8633H40.5222V10.682H38.4974V14.8633H36.3945V8.90186H42.6251Z" fill="#141630"/>
</g>
<defs>
<clipPath id="clip0_711_8871">
<rect width="42.729" height="24" fill="white"/>
</clipPath>
</defs>
</svg>
