<svg width="71" height="38" viewBox="0 0 71 38" fill="none" xmlns="http://www.w3.org/2000/svg">
<path d="M38.0331 15.533H30.0334C28.9289 15.533 28.0334 14.6376 28.0334 13.5331L28.0332 6.03326C28.0332 4.92867 28.9286 4.0332 30.0332 4.0332H42.0327C43.1373 4.0332 44.0328 4.92812 44.0328 6.03272L44.0328 9.5332M28.5328 7.53308H43.5328M42.8609 15.9667L42.8609 13.8615M42.8609 13.8615L42.8609 11.7563M42.8609 13.8615H40.7558M42.8609 13.8615H44.9661" stroke="black" stroke-width="1.5" stroke-linecap="round" stroke-linejoin="round"/>
<path d="M0.77 33V25.08H1.749V28.5725H5.918V25.08H6.897V33H5.918V29.502H1.749V33H0.77ZM10.9699 33.165C10.3796 33.165 9.86992 33.0312 9.44092 32.7635C9.01559 32.4958 8.68742 32.1255 8.45642 31.6525C8.22542 31.1795 8.10992 30.6368 8.10992 30.0245C8.10992 29.4012 8.22726 28.8548 8.46192 28.3855C8.69659 27.9162 9.02842 27.5513 9.45742 27.291C9.88642 27.027 10.3906 26.895 10.9699 26.895C11.5639 26.895 12.0754 27.0288 12.5044 27.2965C12.9334 27.5605 13.2616 27.929 13.4889 28.402C13.7199 28.8713 13.8354 29.4122 13.8354 30.0245C13.8354 30.6442 13.7199 31.1905 13.4889 31.6635C13.2579 32.1328 12.9279 32.5013 12.4989 32.769C12.0699 33.033 11.5603 33.165 10.9699 33.165ZM10.9699 32.2355C11.5859 32.2355 12.0443 32.0302 12.3449 31.6195C12.6456 31.2088 12.7959 30.6772 12.7959 30.0245C12.7959 29.3535 12.6438 28.82 12.3394 28.424C12.0351 28.0243 11.5786 27.8245 10.9699 27.8245C10.5556 27.8245 10.2146 27.918 9.94692 28.105C9.67926 28.292 9.47942 28.5505 9.34742 28.8805C9.21542 29.2105 9.14942 29.5918 9.14942 30.0245C9.14942 30.6918 9.30342 31.2272 9.61142 31.6305C9.91942 32.0338 10.3723 32.2355 10.9699 32.2355ZM15.0409 33V27.06H17.5709C17.7212 27.06 17.8825 27.0692 18.0549 27.0875C18.2309 27.1022 18.3904 27.1297 18.5334 27.17C18.8524 27.2543 19.1145 27.4285 19.3199 27.6925C19.5289 27.9528 19.6334 28.2828 19.6334 28.6825C19.6334 28.9062 19.5985 29.1005 19.5289 29.2655C19.4629 29.4305 19.3675 29.5735 19.2429 29.6945C19.1879 29.7495 19.1274 29.799 19.0614 29.843C18.9954 29.887 18.9294 29.9218 18.8634 29.9475C18.9917 29.9695 19.1219 30.019 19.2539 30.096C19.4629 30.2097 19.626 30.3692 19.7434 30.5745C19.8644 30.7798 19.9249 31.042 19.9249 31.361C19.9249 31.7643 19.8277 32.098 19.6334 32.362C19.439 32.6223 19.1714 32.802 18.8304 32.901C18.6874 32.9413 18.5297 32.9688 18.3574 32.9835C18.185 32.9945 18.0182 33 17.8569 33H15.0409ZM16.0309 32.2025H17.8019C17.8789 32.2025 17.9705 32.1952 18.0769 32.1805C18.1869 32.1658 18.284 32.1475 18.3684 32.1255C18.559 32.0705 18.6965 31.9678 18.7809 31.8175C18.8689 31.6672 18.9129 31.504 18.9129 31.328C18.9129 31.0933 18.8469 30.9027 18.7149 30.756C18.5865 30.6093 18.416 30.5177 18.2034 30.481C18.1264 30.459 18.042 30.4462 17.9504 30.4425C17.8624 30.4388 17.7835 30.437 17.7139 30.437H16.0309V32.2025ZM16.0309 29.6285H17.5049C17.6075 29.6285 17.7157 29.623 17.8294 29.612C17.943 29.5973 18.042 29.5735 18.1264 29.5405C18.295 29.4782 18.4179 29.3755 18.4949 29.2325C18.5755 29.0858 18.6159 28.9263 18.6159 28.754C18.6159 28.5633 18.5719 28.3965 18.4839 28.2535C18.3995 28.1068 18.2694 28.006 18.0934 27.951C17.976 27.907 17.844 27.8832 17.6974 27.8795C17.5544 27.8722 17.4627 27.8685 17.4224 27.8685H16.0309V29.6285ZM23.5598 33.165C22.9694 33.165 22.4598 33.0312 22.0308 32.7635C21.6054 32.4958 21.2773 32.1255 21.0463 31.6525C20.8153 31.1795 20.6998 30.6368 20.6998 30.0245C20.6998 29.4012 20.8171 28.8548 21.0518 28.3855C21.2864 27.9162 21.6183 27.5513 22.0473 27.291C22.4763 27.027 22.9804 26.895 23.5598 26.895C24.1538 26.895 24.6653 27.0288 25.0943 27.2965C25.5233 27.5605 25.8514 27.929 26.0788 28.402C26.3098 28.8713 26.4253 29.4122 26.4253 30.0245C26.4253 30.6442 26.3098 31.1905 26.0788 31.6635C25.8478 32.1328 25.5178 32.5013 25.0888 32.769C24.6598 33.033 24.1501 33.165 23.5598 33.165ZM23.5598 32.2355C24.1758 32.2355 24.6341 32.0302 24.9348 31.6195C25.2354 31.2088 25.3858 30.6772 25.3858 30.0245C25.3858 29.3535 25.2336 28.82 24.9293 28.424C24.6249 28.0243 24.1684 27.8245 23.5598 27.8245C23.1454 27.8245 22.8044 27.918 22.5368 28.105C22.2691 28.292 22.0693 28.5505 21.9373 28.8805C21.8053 29.2105 21.7393 29.5918 21.7393 30.0245C21.7393 30.6918 21.8933 31.2272 22.2013 31.6305C22.5093 32.0338 22.9621 32.2355 23.5598 32.2355ZM30.1937 26.367C29.9187 26.367 29.6675 26.2992 29.4402 26.1635C29.2129 26.0278 29.0314 25.8482 28.8957 25.6245C28.76 25.3972 28.6922 25.1442 28.6922 24.8655H29.4842C29.4842 25.0598 29.5539 25.2267 29.6932 25.366C29.8325 25.5053 29.9994 25.575 30.1937 25.575C30.3917 25.575 30.5585 25.5053 30.6942 25.366C30.8335 25.2267 30.9032 25.0598 30.9032 24.8655H31.6952C31.6952 25.1442 31.6274 25.3972 31.4917 25.6245C31.3597 25.8482 31.1782 26.0278 30.9472 26.1635C30.7199 26.2992 30.4687 26.367 30.1937 26.367ZM32.4982 27.06V33H31.5522V28.622L28.4392 33H27.6307V27.06H28.5767V31.3775L31.6952 27.06H32.4982ZM36.2352 33L36.2407 27.06H37.2307V29.92L39.7222 27.06H40.9927L38.3692 30.03L41.3007 33H39.9312L37.2307 30.14V33H36.2352ZM43.5366 33.165C43.093 33.165 42.7208 33.0843 42.4201 32.923C42.1231 32.758 41.8976 32.5417 41.7436 32.274C41.5933 32.0063 41.5181 31.713 41.5181 31.394C41.5181 31.0823 41.5768 30.8128 41.6941 30.5855C41.8151 30.3545 41.9838 30.1638 42.2001 30.0135C42.4165 29.8595 42.675 29.7385 42.9756 29.6505C43.258 29.5735 43.5733 29.5075 43.9216 29.4525C44.2736 29.3938 44.6293 29.3407 44.9886 29.293C45.348 29.2453 45.6835 29.1995 45.9951 29.1555L45.6431 29.359C45.6541 28.831 45.5478 28.4405 45.3241 28.1875C45.1041 27.9345 44.7228 27.808 44.1801 27.808C43.8208 27.808 43.5055 27.8905 43.2341 28.0555C42.9665 28.2168 42.7776 28.4808 42.6676 28.8475L41.7381 28.567C41.8811 28.0463 42.158 27.6375 42.5686 27.3405C42.9793 27.0435 43.5201 26.895 44.1911 26.895C44.7301 26.895 45.1921 26.9922 45.5771 27.1865C45.9658 27.3772 46.2445 27.6668 46.4131 28.0555C46.4975 28.2388 46.5506 28.4387 46.5726 28.655C46.5946 28.8677 46.6056 29.0913 46.6056 29.326V33H45.7366V31.5755L45.9401 31.7075C45.7165 32.1878 45.403 32.5508 44.9996 32.7965C44.6 33.0422 44.1123 33.165 43.5366 33.165ZM43.6851 32.3455C44.0371 32.3455 44.3415 32.2832 44.5981 32.1585C44.8585 32.0302 45.0675 31.8633 45.2251 31.658C45.3828 31.449 45.4855 31.2217 45.5331 30.976C45.5881 30.7927 45.6175 30.5892 45.6211 30.3655C45.6285 30.1382 45.6321 29.964 45.6321 29.843L45.9731 29.9915C45.6541 30.0355 45.3406 30.0777 45.0326 30.118C44.7246 30.1583 44.4331 30.2023 44.1581 30.25C43.8831 30.294 43.6356 30.3472 43.4156 30.4095C43.2543 30.4608 43.1021 30.5268 42.9591 30.6075C42.8198 30.6882 42.7061 30.7927 42.6181 30.921C42.5338 31.0457 42.4916 31.2015 42.4916 31.3885C42.4916 31.5498 42.532 31.7038 42.6126 31.8505C42.697 31.9972 42.8253 32.1163 42.9976 32.208C43.1736 32.2997 43.4028 32.3455 43.6851 32.3455ZM50.7636 33.165C50.2063 33.165 49.737 33.0275 49.3556 32.7525C48.9743 32.4738 48.6846 32.098 48.4866 31.625C48.2923 31.1483 48.1951 30.6148 48.1951 30.0245C48.1951 29.4268 48.2923 28.8915 48.4866 28.4185C48.6846 27.9455 48.9743 27.5733 49.3556 27.302C49.7406 27.0307 50.2118 26.895 50.7691 26.895C51.3191 26.895 51.7921 27.0325 52.1881 27.3075C52.5878 27.5788 52.894 27.951 53.1066 28.424C53.3193 28.897 53.4256 29.4305 53.4256 30.0245C53.4256 30.6185 53.3193 31.152 53.1066 31.625C52.894 32.098 52.5878 32.4738 52.1881 32.7525C51.7921 33.0275 51.3173 33.165 50.7636 33.165ZM48.0301 35.64V27.06H48.9046V31.4325H49.0146V35.64H48.0301ZM50.6426 32.2685C51.035 32.2685 51.3595 32.1695 51.6161 31.9715C51.8728 31.7735 52.0653 31.5058 52.1936 31.1685C52.322 30.8275 52.3861 30.4462 52.3861 30.0245C52.3861 29.6065 52.322 29.2288 52.1936 28.8915C52.069 28.5542 51.8746 28.2865 51.6106 28.0885C51.3503 27.8905 51.0185 27.7915 50.6151 27.7915C50.2301 27.7915 49.9111 27.8868 49.6581 28.0775C49.4051 28.2645 49.2163 28.5267 49.0916 28.864C48.967 29.1977 48.9046 29.5845 48.9046 30.0245C48.9046 30.4572 48.9651 30.844 49.0861 31.185C49.2108 31.5223 49.4015 31.7882 49.6581 31.9825C49.9148 32.1732 50.243 32.2685 50.6426 32.2685ZM56.2043 33V27.951H54.1363V27.06H59.2513V27.951H57.1833V33H56.2043ZM62.715 33.165C62.1247 33.165 61.615 33.0312 61.186 32.7635C60.7607 32.4958 60.4325 32.1255 60.2015 31.6525C59.9705 31.1795 59.855 30.6368 59.855 30.0245C59.855 29.4012 59.9724 28.8548 60.207 28.3855C60.4417 27.9162 60.7735 27.5513 61.2025 27.291C61.6315 27.027 62.1357 26.895 62.715 26.895C63.309 26.895 63.8205 27.0288 64.2495 27.2965C64.6785 27.5605 65.0067 27.929 65.234 28.402C65.465 28.8713 65.5805 29.4122 65.5805 30.0245C65.5805 30.6442 65.465 31.1905 65.234 31.6635C65.003 32.1328 64.673 32.5013 64.244 32.769C63.815 33.033 63.3054 33.165 62.715 33.165ZM62.715 32.2355C63.331 32.2355 63.7894 32.0302 64.09 31.6195C64.3907 31.2088 64.541 30.6772 64.541 30.0245C64.541 29.3535 64.3889 28.82 64.0845 28.424C63.7802 28.0243 63.3237 27.8245 62.715 27.8245C62.3007 27.8245 61.9597 27.918 61.692 28.105C61.4244 28.292 61.2245 28.5505 61.0925 28.8805C60.9605 29.2105 60.8945 29.5918 60.8945 30.0245C60.8945 30.6918 61.0485 31.2272 61.3565 31.6305C61.6645 32.0338 62.1174 32.2355 62.715 32.2355ZM69.349 26.367C69.074 26.367 68.8228 26.2992 68.5955 26.1635C68.3682 26.0278 68.1867 25.8482 68.051 25.6245C67.9153 25.3972 67.8475 25.1442 67.8475 24.8655H68.6395C68.6395 25.0598 68.7092 25.2267 68.8485 25.366C68.9878 25.5053 69.1547 25.575 69.349 25.575C69.547 25.575 69.7138 25.5053 69.8495 25.366C69.9888 25.2267 70.0585 25.0598 70.0585 24.8655H70.8505C70.8505 25.1442 70.7827 25.3972 70.647 25.6245C70.515 25.8482 70.3335 26.0278 70.1025 26.1635C69.8752 26.2992 69.624 26.367 69.349 26.367ZM71.6535 27.06V33H70.7075V28.622L67.5945 33H66.786V27.06H67.732V31.3775L70.8505 27.06H71.6535Z" fill="#070A13"/>
</svg>
