<svg width="43" height="24" viewBox="0 0 43 24" fill="none" xmlns="http://www.w3.org/2000/svg">
<g clip-path="url(#clip0_724_6973)">
<path d="M33.5098 12.2224C33.5098 11.4436 33.0088 10.9877 32.2858 10.9877C31.5405 10.9877 31.0399 11.455 31.0399 12.2337C31.0399 12.9678 31.5405 13.5024 32.2858 13.5024C33.0647 13.5024 33.5098 12.9237 33.5098 12.2224ZM35.6682 12.2224C35.6682 13.9581 34.2219 15.104 32.2746 15.104C30.2609 15.104 28.7922 13.8914 28.7922 11.1433C28.7922 8.78475 30.2986 6.84113 32.5276 6.80404C33.5037 6.80404 35.602 6.75784 35.602 6.75784L34.6572 8.49242C34.6572 8.49242 32.9859 8.49511 32.7644 8.49511C31.8025 8.49511 30.9285 9.21855 30.8058 10.2089C31.3177 9.7304 31.9964 9.45212 32.8199 9.45212C34.6002 9.45212 35.6682 10.5427 35.6682 12.2224Z" fill="#141630"/>
<path d="M27.1252 13.0623C27.1252 13.0623 26.6168 13.3484 25.8581 13.4032C24.9851 13.4279 24.2087 12.8909 24.2087 11.9341C24.2087 11.0001 24.8954 10.4655 25.8361 10.4655C26.4136 10.4655 27.178 10.8568 27.178 10.8568C27.178 10.8568 27.7365 9.85422 28.0263 9.35359C27.4965 8.96032 26.7892 8.74514 25.9689 8.74514C23.8956 8.74514 22.2905 10.0663 22.2905 11.9224C22.2905 13.8016 23.7993 15.0927 25.9689 15.0533C26.5758 15.0306 27.4123 14.8233 27.9216 14.5038L27.1252 13.0623Z" fill="#141630"/>
<path d="M0.321045 5.23238L3.22691 10.4089L3.22706 13.5651L0.32583 18.7314L0.321045 5.23238Z" fill="#5454AE"/>
<path d="M11.4751 8.52509L14.1969 6.86199L19.7664 6.8578L11.4751 11.9219V8.52509Z" fill="#DD1059"/>
<path d="M11.4601 5.2025L11.4752 12.0547L8.56348 10.2718V0.027173L11.4601 5.2025Z" fill="#F9AD1C"/>
<path d="M19.7663 6.85763L14.1968 6.86182L11.4601 5.20245L8.56348 0.0271249L19.7663 6.85763Z" fill="#F36228"/>
<path d="M11.4752 18.7607V15.4356L8.56396 13.6863L8.56441 23.9399L11.4752 18.7607Z" fill="#58C034"/>
<path d="M14.1901 17.1128L3.22691 10.4091L0.321045 5.23257L19.7552 17.1064L14.1901 17.1128Z" fill="#3E88D0"/>
<path d="M8.56421 23.9399L11.475 18.7607L14.1901 17.1129L19.7552 17.1064L8.56421 23.9399Z" fill="#27843B"/>
<path d="M0.325928 18.7314L8.58656 13.6862L5.80869 11.9875L3.22701 13.5649L0.325928 18.7314Z" fill="#8D3CA2"/>
<path d="M42.8961 8.90235V14.8638H40.7932V10.6825H38.7684V14.8638H36.6655V8.90235H42.8961Z" fill="#141630"/>
</g>
<defs>
<clipPath id="clip0_724_6973">
<rect width="42.729" height="24" fill="white" transform="translate(0.270996)"/>
</clipPath>
</defs>
</svg>
