<svg width="60" height="60" viewBox="0 0 60 60" fill="none" xmlns="http://www.w3.org/2000/svg">
<path d="M22.8 22.8V20.8C21.6954 20.8 20.8 21.6954 20.8 22.8H22.8ZM23.0391 22.8H25.0391C25.0391 21.6954 24.1436 20.8 23.0391 20.8V22.8ZM37.2 22.8V20.8C36.0954 20.8 35.2 21.6954 35.2 22.8H37.2ZM37.4125 22.8H39.4125C39.4125 21.6954 38.5171 20.8 37.4125 20.8V22.8ZM23.0391 22.9922V24.9922C24.1436 24.9922 25.0391 24.0968 25.0391 22.9922H23.0391ZM22.8 22.9922H20.8C20.8 24.0968 21.6954 24.9922 22.8 24.9922V22.9922ZM37.4125 22.9922V24.9922C38.5171 24.9922 39.4125 24.0968 39.4125 22.9922H37.4125ZM37.2 22.9922H35.2C35.2 24.0968 36.0954 24.9922 37.2 24.9922V22.9922ZM29.9998 36.0096V34.0096V36.0096ZM36.6194 41.7642C37.2007 42.7034 38.4334 42.9935 39.3726 42.4121C40.3118 41.8307 40.6019 40.5981 40.0205 39.6589L36.6194 41.7642ZM19.9791 39.6589C19.3978 40.5981 19.6878 41.8307 20.627 42.4121C21.5662 42.9935 22.7989 42.7034 23.3802 41.7642L19.9791 39.6589ZM52 30C52 42.1503 42.1503 52 30 52V56C44.3594 56 56 44.3594 56 30H52ZM30 52C17.8497 52 8 42.1503 8 30H4C4 44.3594 15.6406 56 30 56V52ZM8 30C8 17.8497 17.8497 8 30 8V4C15.6406 4 4 15.6406 4 30H8ZM30 8C42.1503 8 52 17.8497 52 30H56C56 15.6406 44.3594 4 30 4V8ZM22.8 24.8H23.0391V20.8H22.8V24.8ZM37.2 24.8H37.4125V20.8H37.2V24.8ZM21.0391 22.8V22.9922H25.0391V22.8H21.0391ZM23.0391 20.9922H22.8V24.9922H23.0391V20.9922ZM24.8 22.9922V22.8H20.8V22.9922H24.8ZM35.4125 22.8V22.9922H39.4125V22.8H35.4125ZM37.4125 20.9922H37.2V24.9922H37.4125V20.9922ZM39.2 22.9922V22.8H35.2V22.9922H39.2ZM29.9998 38.0096C32.7589 38.0096 35.2091 39.486 36.6194 41.7642L40.0205 39.6589C37.931 36.2833 34.2364 34.0096 29.9998 34.0096V38.0096ZM23.3802 41.7642C24.7905 39.486 27.2407 38.0096 29.9998 38.0096V34.0096C25.7632 34.0096 22.0686 36.2833 19.9791 39.6589L23.3802 41.7642Z" fill="#7445FF"/>
</svg>
