<svg width="163" height="200" viewBox="0 0 163 200" fill="none" xmlns="http://www.w3.org/2000/svg">
<path d="M139.24 78.2903C140.283 77.6699 141.634 78.1145 142.105 79.2333L144.491 84.8998C144.898 85.8672 144.488 86.985 143.552 87.4597L127.583 95.5562C126.491 96.1101 125.162 95.5607 124.779 94.397L123.215 89.6401C122.922 88.7497 123.287 87.7754 124.093 87.2964L139.24 78.2903Z" fill="#1E293B"/>
<path fill-rule="evenodd" clip-rule="evenodd" d="M82.259 28.3935C81.2464 25.1868 81.1071 21.7217 82.701 18.5769C87.2933 9.51596 99.4084 17.0451 99.9459 22.8226C100.484 28.6001 95.1418 40.4271 91.523 39.8929C90.0799 39.6799 87.6543 37.6877 85.5508 34.7946L82.0305 48.0876L71.5722 43.6767L82.259 28.3935Z" fill="#B28B67"/>
<path fill-rule="evenodd" clip-rule="evenodd" d="M107.334 18.2449C107.439 17.3913 107.132 16.4931 106.429 15.9684C106.258 15.8411 106.069 15.7392 105.87 15.6645C105.799 15.6377 105.77 15.6497 105.758 15.5866C105.749 15.5399 105.786 15.4505 105.794 15.4034C105.82 15.257 105.836 15.1089 105.842 14.9604C105.862 14.4538 105.749 13.9503 105.554 13.4839C105.189 12.6115 104.525 11.8358 103.684 11.3911C103.223 11.1478 102.716 11.0253 102.198 10.9904C101.93 10.9723 101.661 10.977 101.393 10.9948C101.312 11.0001 101.027 11.0726 100.965 11.0339C100.896 10.9911 100.825 10.745 100.784 10.6736C100.283 9.7914 99.4622 9.18134 98.5359 8.79854C97.4902 8.36677 96.4645 7.99559 95.3269 8.26513C95.0861 8.32221 94.8486 8.39577 94.6163 8.48065C94.4939 8.52533 94.373 8.57425 94.2546 8.62834C94.1831 8.66098 94.1124 8.69536 94.0429 8.73196C93.925 8.79408 93.9243 8.83056 93.8432 8.71829C93.5322 8.28734 93.0976 7.96384 92.5839 7.81797C92.2789 7.73137 91.96 7.69954 91.6437 7.70128C91.5361 7.70187 91.2592 7.76861 91.1614 7.72913C91.0643 7.68994 90.9171 7.45774 90.8332 7.37914C90.3803 6.95455 89.8227 6.66176 89.2201 6.51555C88.5985 6.36475 87.9291 6.35611 87.3008 6.46934C86.9986 6.52383 86.7196 6.60773 86.4566 6.76734C86.343 6.83625 86.2339 6.91381 86.1139 6.97146C86.0436 7.00522 85.926 7.02071 85.8717 7.07808C85.9042 7.04372 85.3588 6.5175 85.3041 6.4755C85.0127 6.25173 84.6719 6.12844 84.3067 6.09884C83.6198 6.0432 82.9132 6.27006 82.2943 6.54714C81.9764 6.68947 81.6754 6.86806 81.3962 7.07582C81.2625 7.17532 81.1338 7.28142 81.0099 7.39296C80.9499 7.447 80.8934 7.52243 80.8262 7.56556C80.7396 7.62112 80.7029 7.60741 80.5913 7.60051C80.0248 7.56547 79.4513 7.66873 78.9416 7.92017C78.4261 8.17459 77.9932 8.57306 77.6798 9.05279C77.6614 9.08105 77.6046 9.20647 77.5797 9.21548C77.5455 9.22795 77.4505 9.176 77.4111 9.16457C77.2747 9.12501 77.136 9.09328 76.9959 9.06976C76.7376 9.02637 76.4745 9.01186 76.2131 9.02778C75.1943 9.08981 74.2615 9.61832 73.5951 10.3746C72.8957 11.1684 72.4546 12.2296 72.442 13.2926C72.4399 13.4643 72.4511 13.6365 72.4778 13.8062C72.4943 13.9104 72.5107 13.9176 72.4409 13.9902C72.3631 14.071 72.2558 14.136 72.172 14.2116C71.8986 14.4583 71.6606 14.7419 71.4567 15.0481C71.1222 15.5503 70.8285 16.1024 70.6992 16.6961C70.6391 16.9717 70.6169 17.2566 70.6477 17.5377C70.6635 17.681 70.6927 17.8229 70.7352 17.9608C70.7573 18.0323 70.7831 18.1027 70.8119 18.1718C70.8285 18.2114 70.8552 18.2511 70.8662 18.2921C70.8929 18.392 70.9313 18.3353 70.8545 18.4331C70.7472 18.5698 70.5873 18.6818 70.4654 18.8075C70.3397 18.9369 70.219 19.0709 70.1023 19.2085C69.8658 19.4869 69.6426 19.7778 69.4489 20.0878C69.0771 20.6829 68.8082 21.3708 68.8627 22.0839C68.8859 22.3889 68.9782 22.6868 69.1305 22.9524C69.205 23.0824 69.2935 23.2047 69.3933 23.3166C69.4446 23.3741 69.521 23.4217 69.524 23.4961C69.5273 23.5761 69.4247 23.689 69.3825 23.7592C69.016 24.3694 68.6819 25.0315 68.6063 25.7491C68.5367 26.4101 68.7094 27.0924 69.0724 27.6491C69.7768 28.729 71.1199 29.2513 72.3789 29.1557C72.7071 29.1307 73.032 29.0649 73.3427 28.9567C73.5901 29.9709 74.7797 30.4439 75.7102 30.5771C76.8694 30.743 78.0132 30.3697 78.8983 29.6186C79.2189 30.7009 80.7134 31.0239 81.5388 30.3446C81.7408 30.1783 81.9065 29.9711 82.0396 29.7467C82.1096 29.6288 82.1519 29.4979 82.2172 29.3791C82.3004 29.2278 82.4709 29.1185 82.5962 28.991C82.8401 28.7429 83.0433 28.466 83.182 28.1459C83.2545 27.9788 83.3022 27.8063 83.3565 27.6331C83.4053 27.4772 83.5057 27.3551 83.5917 27.2171C83.3054 27.1484 83.0099 26.9386 82.7905 26.7545C82.5752 26.5739 82.4281 26.2753 82.3308 26.0183C82.1049 25.4213 82.0926 24.7586 82.1576 24.1315C82.3 22.755 83.0696 21.3561 84.577 21.2036C85.2793 21.1325 86.9887 21.8547 87.6035 22.2955C88.2499 22.759 88.3942 24.6798 88.3715 24.845C88.3574 24.9473 88.297 25.0557 88.3555 25.1525C88.484 25.3652 88.888 25.2605 89.0732 25.2028C89.3929 25.1034 89.6727 24.9096 89.9315 24.7027C90.4953 24.2521 91.0155 23.7331 91.4661 23.1695C91.8135 22.7349 92.1172 22.2637 92.5021 21.8598C92.885 21.4578 93.351 21.1507 93.9095 21.0671C94.5169 20.976 95.1363 21.0544 95.7448 21.0928C96.348 21.1309 96.9593 21.1245 97.5312 20.9068C97.6569 20.8589 97.7823 20.8046 97.897 20.7341C97.9875 20.6785 98.1081 20.5498 98.2161 20.5359C98.3841 20.5143 98.4948 20.8015 98.5802 20.9249C99.0012 21.5334 99.2661 22.2462 99.4181 22.967C99.5693 23.6838 99.6602 24.3505 99.6558 25.0779C99.6526 25.6173 99.5234 26.2555 99.6997 26.7731C99.7783 27.0041 100.847 27.5745 101.269 27.5797C101.691 27.5848 102.255 27.3741 102.476 27.1864C102.703 26.9942 102.846 26.7383 102.906 26.4486C102.941 26.2781 102.939 26.1043 102.97 25.9351C102.995 25.793 103.021 25.6591 103.008 25.5135C102.983 25.2377 102.847 24.9895 102.629 24.8178C102.986 24.6892 103.318 24.4956 103.598 24.241C103.89 23.9766 104.188 23.6312 104.377 23.2856C104.53 23.005 104.612 22.6818 104.558 22.3621C104.502 22.0269 104.276 21.7287 104.088 21.4551C104.612 21.3127 105.107 21.0797 105.56 20.7812C106.439 20.2008 107.202 19.3232 107.334 18.2449Z" fill="#191847"/>
<path fill-rule="evenodd" clip-rule="evenodd" d="M70.3325 86.8291L93.0719 147.073L109.011 191.476H118.099L96.1895 86.8291L70.3325 86.8291Z" fill="#1F28CF"/>
<path fill-rule="evenodd" clip-rule="evenodd" d="M64.7125 86.8291C64.4653 107.5 64.644 135.33 64.0681 136.618C63.6842 137.477 51.7419 147.265 28.2415 165.98L32.9259 173.956C60.8263 155.941 75.4898 145.734 76.9162 143.334C79.0559 139.734 89.8053 106.604 95.398 86.8291H64.7125Z" fill="#2B44FF"/>
<path fill-rule="evenodd" clip-rule="evenodd" d="M20.0002 171.348L27.9134 165.318L34.2969 172.935C34.7874 178.678 36.6858 185.118 39.9922 192.256L38.5428 193.473L26.9917 179.69L23.7646 174.366L23.0399 174.975L20.0002 171.348Z" fill="#191847"/>
<path fill-rule="evenodd" clip-rule="evenodd" d="M108.167 199.999L108.64 190.056H118.572C123.281 193.37 129.429 196.053 137.016 198.105V199.999H119.044L112.896 199.052V199.999H108.167Z" fill="#191847"/>
<path fill-rule="evenodd" clip-rule="evenodd" d="M114.133 89.6085L120.298 94.7882L124.183 96.054C128.408 96.3826 136.554 94.9436 139.692 94.3127C140.501 93.9724 141.641 93.1059 139.037 92.4004C136.434 91.6949 133.727 90.8356 133.685 89.846C133.643 88.8563 135.544 88.3664 135.253 86.9476C135.058 86.0017 129.828 88.0977 124.183 91.365L111.655 78.561L114.133 89.6085Z" fill="#B28B67"/>
<path fill-rule="evenodd" clip-rule="evenodd" d="M52.4973 81.2227L62.3804 81.2616C56.278 100.985 52.9836 111.45 52.4973 112.657C51.4029 115.373 53.7187 119.508 54.709 121.73C51.4836 123.175 51.8273 117.824 47.7585 119.719C44.0447 121.449 41.2196 124.583 36.9288 121.933C36.4013 121.607 35.8232 120.38 37.2199 119.421C40.6997 117.032 45.7142 112.851 46.3917 111.475C47.3156 109.598 49.3508 99.5139 52.4973 81.2227Z" fill="#B28B67"/>
<path fill-rule="evenodd" clip-rule="evenodd" d="M80.5836 39.7019L84.6731 38.9996C99.8464 52.1232 106.079 77.3352 124.677 90.6911L120.201 96.2467C87.9354 92.2469 79.9381 61.4943 80.5836 39.7019Z" fill="#E87613"/>
<path fill-rule="evenodd" clip-rule="evenodd" d="M62.7563 91.1582C79.1538 91.1582 91.2154 91.1582 98.9412 91.1582C100.595 91.1582 100.283 88.7678 100.044 87.5615C97.2855 73.64 86.5171 58.6333 86.5171 38.8164L76.0797 37.1777C67.4467 51.0793 64.4612 68.195 62.7563 91.1582Z" fill="#DDE3E9"/>
<path fill-rule="evenodd" clip-rule="evenodd" d="M63.0471 50.8419C61.5312 50.4056 60.3308 49.388 59.4458 47.7892C55.6309 40.8972 57.0087 37.1026 61.0856 35.8553C65.1625 34.608 68.7982 37.1772 75.2938 37.1772C75.6471 37.1772 75.9707 37.1994 76.2646 37.2438L79.5321 37.4305C88.9067 69.2413 91.4922 90.465 87.2885 101.102H58.8082C57.1208 105.041 55.5061 108.356 53.964 111.045H46.2037C45.4733 87.4014 51.0878 67.3336 63.0471 50.8419Z" fill="#FF9B21"/>
<path fill-rule="evenodd" clip-rule="evenodd" d="M65.0096 84.7637C65.9053 92.2671 67.3611 97.7129 69.3771 101.101H58.8079C60.7762 96.5056 62.8435 91.0598 65.0096 84.7637Z" fill="black" fill-opacity="0.1"/>
</svg>
