<svg width="375" height="36" viewBox="0 0 375 36" fill="none" xmlns="http://www.w3.org/2000/svg">
<path d="M297 23.5H298C298.552 23.5 299 23.9477 299 24.5V26.5C299 27.0523 298.552 27.5 298 27.5H297C296.448 27.5 296 27.0523 296 26.5V24.5C296 23.9477 296.448 23.5 297 23.5Z" fill="black"/>
<path d="M301.5 21.5H302.5C303.052 21.5 303.5 21.9477 303.5 22.5V26.5C303.5 27.0523 303.052 27.5 302.5 27.5H301.5C300.948 27.5 300.5 27.0523 300.5 26.5V22.5C300.5 21.9477 300.948 21.5 301.5 21.5Z" fill="black"/>
<path d="M306 19.5H307C307.552 19.5 308 19.9298 308 20.46V26.54C308 27.0702 307.552 27.5 307 27.5H306C305.448 27.5 305 27.0702 305 26.54V20.46C305 19.9298 305.448 19.5 306 19.5Z" fill="black"/>
<path d="M310.5 16.5H311.5C312.052 16.5 312.5 16.9617 312.5 17.5312V26.4688C312.5 27.0383 312.052 27.5 311.5 27.5H310.5C309.948 27.5 309.5 27.0383 309.5 26.4688V17.5312C309.5 16.9617 309.948 16.5 310.5 16.5V16.5Z" fill="black" fill-opacity="0.2"/>
<path fill-rule="evenodd" clip-rule="evenodd" d="M325 18.7845C327.177 18.7846 329.27 19.6387 330.847 21.1703C330.966 21.2885 331.156 21.287 331.273 21.1669L332.408 19.9966C332.467 19.9357 332.5 19.8532 332.5 19.7673C332.5 19.6815 332.466 19.5994 332.406 19.5392C328.266 15.4869 321.734 15.4869 317.595 19.5392C317.535 19.5993 317.501 19.6814 317.5 19.7673C317.499 19.8531 317.532 19.9356 317.592 19.9966L318.727 21.1669C318.844 21.2872 319.034 21.2887 319.153 21.1703C320.73 19.6386 322.824 18.7845 325 18.7845ZM325 22.592C326.196 22.5919 327.349 23.0459 328.236 23.8657C328.356 23.982 328.544 23.9795 328.661 23.86L329.795 22.6897C329.855 22.6283 329.888 22.545 329.887 22.4585C329.887 22.3719 329.852 22.2893 329.791 22.2292C327.092 19.6648 322.912 19.6648 320.212 22.2292C320.151 22.2893 320.117 22.372 320.116 22.4585C320.115 22.5451 320.148 22.6284 320.208 22.6897L321.342 23.86C321.459 23.9795 321.648 23.982 321.767 23.8657C322.653 23.0464 323.805 22.5925 325 22.592ZM327.272 25.1539C327.274 25.2407 327.24 25.3243 327.18 25.3851L325.218 27.4071C325.161 27.4665 325.082 27.5 325 27.5C324.919 27.5 324.84 27.4665 324.783 27.4071L322.821 25.3851C322.76 25.3243 322.727 25.2406 322.728 25.1538C322.73 25.067 322.767 24.9849 322.83 24.9267C324.083 23.8444 325.918 23.8444 327.171 24.9267C327.234 24.9849 327.27 25.0671 327.272 25.1539Z" fill="black"/>
<rect x="338" y="16.5" width="21.6077" height="11" rx="2.16667" stroke="black" stroke-opacity="0.6"/>
<path d="M361.135 19.8823V24.1176C361.962 23.7589 362.5 22.9245 362.5 22C362.5 21.0755 361.962 20.241 361.135 19.8823Z" fill="black" fill-opacity="0.6"/>
<rect x="339.555" y="18.1177" width="18.4972" height="7.76471" rx="1.33333" fill="black"/>
<path d="M31.7267 27.2637C29.1925 27.2637 27.6911 25.2129 27.6911 21.7046C27.6911 18.2109 29.2145 16.1675 31.7267 16.1675C34.2316 16.1675 35.755 18.2109 35.755 21.7192C35.755 25.2129 34.2536 27.2637 31.7267 27.2637ZM31.7267 25.6963C33.0671 25.6963 33.8434 24.3047 33.8434 21.7046C33.8434 19.1191 33.0524 17.7422 31.7267 17.7422C30.401 17.7422 29.6027 19.1265 29.6027 21.7046C29.6027 24.3047 30.3864 25.6963 31.7267 25.6963ZM41.3419 27.2563C39.4083 27.2563 37.9361 26.1138 37.6212 24.3779H39.5035C39.7452 25.1763 40.4483 25.6743 41.3565 25.6743C42.9019 25.6743 43.8175 24.2314 43.8175 21.8145C43.8175 21.8145 43.7662 21.8145 43.7515 21.8145C43.7442 21.8145 43.7149 21.8145 43.7149 21.8145H43.6929C43.1949 22.8179 42.1915 23.3965 40.9537 23.3965C38.9395 23.3965 37.4747 21.917 37.4747 19.8809C37.4747 17.7129 39.1007 16.1675 41.4005 16.1675C42.9459 16.1675 44.169 16.8999 44.8795 18.2549C45.3702 19.1265 45.6265 20.2544 45.6265 21.5947C45.6265 25.1543 44.0299 27.2563 41.3419 27.2563ZM41.4078 21.895C42.6163 21.895 43.5025 21.0308 43.5025 19.8516C43.5025 18.6577 42.5943 17.7422 41.4151 17.7422C40.2359 17.7422 39.3277 18.6431 39.3277 19.8223C39.3277 21.0308 40.192 21.895 41.4078 21.895ZM48.7744 25.8794C48.0859 25.8794 47.6025 25.3813 47.6025 24.7222C47.6025 24.0557 48.0859 23.5649 48.7744 23.5649C49.4702 23.5649 49.9463 24.0557 49.9463 24.7222C49.9463 25.3813 49.4702 25.8794 48.7744 25.8794ZM48.7744 20.3862C48.0859 20.3862 47.6025 19.8955 47.6025 19.2363C47.6025 18.5698 48.0859 18.0791 48.7744 18.0791C49.4702 18.0791 49.9463 18.5698 49.9463 19.2363C49.9463 19.8955 49.4702 20.3862 48.7744 20.3862ZM57.0785 27V25.0298H51.915V23.3452C52.8671 21.5947 54.3539 19.2437 56.2216 16.4312H58.8876V23.4331H60.3158V25.0298H58.8876V27H57.0785ZM53.6654 23.3672V23.4771H57.1078V17.9692H57.0053C55.9946 19.4634 54.8959 21.1992 53.6654 23.3672ZM64.4745 27V18.3354H64.3499L61.7205 20.1812V18.3647L64.4818 16.4312H66.3641V27H64.4745Z" fill="black"/>
</svg>
