<svg width="217" height="145" viewBox="0 0 217 145" fill="none" xmlns="http://www.w3.org/2000/svg">
<g filter="url(#filter0_d_569_8795)">
<g clip-path="url(#clip0_569_8795)">
<rect x="4" y="2" width="209" height="137" rx="9.78166" fill="white"/>
<path d="M21.4297 25.7812H20.3292V18.8974L15.7379 25.7812H14.6375V16.9778H15.7379V23.8555L20.3292 16.9778H21.4297V25.7812ZM25.5051 25.9647C24.853 25.9647 24.2763 25.824 23.775 25.5428C23.2736 25.2575 22.8783 24.8663 22.5889 24.369L23.4571 23.8066C23.6975 24.1693 23.9849 24.4485 24.3191 24.6441C24.6533 24.8357 25.0343 24.9315 25.4623 24.9315C25.9106 24.9315 26.2672 24.8296 26.5322 24.6258C26.7971 24.4179 26.9295 24.1387 26.9295 23.7882C26.9295 23.5274 26.8643 23.3277 26.7339 23.1891C26.6035 23.0505 26.416 22.9548 26.1715 22.9018C25.9269 22.8488 25.6355 22.8223 25.2972 22.8223H24.6125V21.9236H25.2911C25.7191 21.9236 26.0675 21.8543 26.3365 21.7157C26.6055 21.5772 26.74 21.3408 26.74 21.0066C26.74 20.6642 26.6137 20.4156 26.361 20.2607C26.1124 20.1018 25.8148 20.0223 25.4684 20.0223C25.1016 20.0223 24.7511 20.0997 24.4169 20.2546C24.0827 20.4054 23.7953 20.597 23.5549 20.8293L22.8946 20.0895C23.237 19.739 23.6303 19.47 24.0745 19.2826C24.5228 19.091 25.0099 18.9952 25.5357 18.9952C25.9595 18.9952 26.3467 19.0706 26.6972 19.2214C27.0518 19.3681 27.333 19.5862 27.5409 19.8756C27.7528 20.1609 27.8588 20.5093 27.8588 20.921C27.8588 21.2715 27.7773 21.5833 27.6143 21.8564C27.4512 22.1294 27.2108 22.3679 26.8929 22.5716L26.8501 22.1865C27.1191 22.2517 27.3412 22.3719 27.5164 22.5472C27.6958 22.7184 27.8282 22.9222 27.9138 23.1585C27.9994 23.3949 28.0422 23.6415 28.0422 23.8983C28.0422 24.3303 27.9281 24.7012 27.6998 25.0109C27.4757 25.3166 27.172 25.553 26.7889 25.7201C26.4058 25.8831 25.9779 25.9647 25.5051 25.9647ZM34.7884 19.1786V25.7812H33.7369V20.9149L30.2766 25.7812H29.3779V19.1786H30.4294V23.9778L33.8958 19.1786H34.7884ZM45.7405 25.7812H44.6401V18.8974L40.0488 25.7812H38.9484V16.9778H40.0488V23.8555L44.6401 16.9778H45.7405V25.7812ZM47.4439 25.7812V19.1786H50.2561C50.4232 19.1786 50.6026 19.1888 50.7941 19.2092C50.9897 19.2255 51.167 19.2561 51.326 19.3009C51.6806 19.3946 51.972 19.5882 52.2002 19.8817C52.4325 20.1711 52.5487 20.5379 52.5487 20.9821C52.5487 21.2307 52.51 21.4468 52.4325 21.6302C52.3592 21.8136 52.2532 21.9725 52.1146 22.107C52.0535 22.1681 51.9863 22.2232 51.9129 22.2721C51.8395 22.321 51.7662 22.3597 51.6928 22.3882C51.8355 22.4127 51.9801 22.4677 52.1269 22.5533C52.3592 22.6796 52.5406 22.8569 52.671 23.0852C52.8055 23.3134 52.8727 23.6048 52.8727 23.9594C52.8727 24.4077 52.7647 24.7786 52.5487 25.0721C52.3327 25.3615 52.0352 25.5612 51.6561 25.6712C51.4972 25.716 51.3219 25.7466 51.1304 25.7629C50.9388 25.7751 50.7534 25.7812 50.574 25.7812H47.4439ZM48.5443 24.8948H50.5129C50.5985 24.8948 50.7004 24.8866 50.8186 24.8703C50.9408 24.854 51.0488 24.8337 51.1426 24.8092C51.3545 24.7481 51.5074 24.6339 51.6011 24.4668C51.6989 24.2997 51.7478 24.1184 51.7478 23.9227C51.7478 23.6619 51.6745 23.45 51.5277 23.2869C51.3851 23.1239 51.1956 23.022 50.9592 22.9812C50.8736 22.9568 50.7799 22.9425 50.678 22.9385C50.5801 22.9344 50.4925 22.9323 50.4151 22.9323H48.5443V24.8948ZM48.5443 22.0337H50.1828C50.2969 22.0337 50.4171 22.0275 50.5435 22.0153C50.6698 21.999 50.7799 21.9725 50.8736 21.9358C51.0611 21.8665 51.1976 21.7524 51.2832 21.5935C51.3729 21.4304 51.4177 21.2532 51.4177 21.0616C51.4177 20.8497 51.3688 20.6642 51.271 20.5053C51.1772 20.3422 51.0325 20.2302 50.8369 20.169C50.7065 20.1201 50.5598 20.0936 50.3967 20.0895C50.2378 20.0814 50.1359 20.0773 50.0911 20.0773H48.5443V22.0337ZM59.5052 19.1786V25.7812H58.4537V20.9149L54.9934 25.7812H54.0948V19.1786H55.1463V23.9778L58.6127 19.1786H59.5052Z" fill="#070A13"/>
<path d="M16.9142 39.9096C16.3008 39.9096 15.7801 39.7741 15.3522 39.5031C14.9242 39.2321 14.5976 38.8555 14.3722 38.3733C14.1497 37.8911 14.0384 37.3334 14.0384 36.7C14.0384 36.0667 14.1497 35.5089 14.3722 35.0268C14.5976 34.5446 14.9242 34.168 15.3522 33.897C15.7801 33.6259 16.3008 33.4904 16.9142 33.4904C17.6274 33.4904 18.2137 33.6716 18.6731 34.0339C19.1352 34.3962 19.4533 34.8841 19.6274 35.4975L18.8528 35.7029C18.7273 35.2436 18.5033 34.8813 18.1809 34.6159C17.8585 34.3506 17.4363 34.2179 16.9142 34.2179C16.4549 34.2179 16.0726 34.3221 15.7673 34.5303C15.462 34.7386 15.2324 35.0296 15.0783 35.4033C14.9242 35.7742 14.8458 36.2065 14.8429 36.7C14.8401 37.1907 14.9157 37.623 15.0697 37.9967C15.2238 38.3676 15.4549 38.6586 15.763 38.8697C16.0711 39.078 16.4549 39.1821 16.9142 39.1821C17.4363 39.1821 17.8585 39.0495 18.1809 38.7841C18.5033 38.516 18.7273 38.1536 18.8528 37.6971L19.6274 37.9026C19.4533 38.5131 19.1352 39.001 18.6731 39.3661C18.2137 39.7285 17.6274 39.9096 16.9142 39.9096ZM20.5616 39.7812V35.1594H21.2164L22.971 38.7456L24.7256 35.1594H25.3803V39.7812H24.6443V36.7471L23.1721 39.7812H22.7699L21.2977 36.7471V39.7812H20.5616ZM28.5441 39.9096C28.0848 39.9096 27.6882 39.8055 27.3544 39.5972C27.0235 39.389 26.7682 39.1008 26.5884 38.7328C26.4087 38.3647 26.3188 37.9425 26.3188 37.4661C26.3188 36.981 26.4101 36.556 26.5927 36.1908C26.7753 35.8256 27.0335 35.5417 27.3673 35.3392C27.7011 35.1337 28.0934 35.031 28.5441 35.031C29.0063 35.031 29.4043 35.1352 29.7381 35.3434C30.0719 35.5488 30.3273 35.8356 30.5041 36.2036C30.6839 36.5688 30.7737 36.9896 30.7737 37.4661C30.7737 37.9482 30.6839 38.3733 30.5041 38.7413C30.3244 39.1065 30.0676 39.3932 29.7338 39.6015C29.4 39.8069 29.0035 39.9096 28.5441 39.9096ZM28.5441 39.1864C29.0234 39.1864 29.3801 39.0266 29.614 38.7071C29.8479 38.3876 29.9649 37.9739 29.9649 37.4661C29.9649 36.944 29.8465 36.5288 29.6097 36.2207C29.3729 35.9098 29.0177 35.7543 28.5441 35.7543C28.2217 35.7543 27.9564 35.827 27.7482 35.9725C27.5399 36.118 27.3844 36.3192 27.2817 36.5759C27.179 36.8327 27.1276 37.1294 27.1276 37.4661C27.1276 37.9853 27.2475 38.4018 27.4871 38.7157C27.7268 39.0295 28.0791 39.1864 28.5441 39.1864ZM32.8396 39.7812V35.8527H31.2305V35.1594H35.2104V35.8527H33.6013V39.7812H32.8396ZM38.1431 39.9096C37.7095 39.9096 37.3443 39.8026 37.0476 39.5887C36.7509 39.3718 36.5255 39.0794 36.3714 38.7114C36.2202 38.3405 36.1446 37.9254 36.1446 37.4661C36.1446 37.001 36.2202 36.5845 36.3714 36.2164C36.5255 35.8484 36.7509 35.5588 37.0476 35.3477C37.3472 35.1366 37.7138 35.031 38.1474 35.031C38.5754 35.031 38.9434 35.138 39.2515 35.352C39.5625 35.5631 39.8007 35.8527 39.9662 36.2207C40.1317 36.5888 40.2144 37.0039 40.2144 37.4661C40.2144 37.9282 40.1317 38.3433 39.9662 38.7114C39.8007 39.0794 39.5625 39.3718 39.2515 39.5887C38.9434 39.8026 38.5739 39.9096 38.1431 39.9096ZM36.0162 41.8354V35.1594H36.6967V38.5616H36.7823V41.8354H36.0162ZM38.049 39.2121C38.3543 39.2121 38.6067 39.135 38.8065 38.981C39.0062 38.8269 39.1559 38.6187 39.2558 38.3562C39.3557 38.0909 39.4056 37.7941 39.4056 37.4661C39.4056 37.1408 39.3557 36.847 39.2558 36.5845C39.1588 36.322 39.0076 36.1137 38.8022 35.9597C38.5996 35.8056 38.3414 35.7286 38.0276 35.7286C37.728 35.7286 37.4798 35.8028 37.283 35.9511C37.0861 36.0966 36.9392 36.3006 36.8422 36.5631C36.7452 36.8227 36.6967 37.1237 36.6967 37.4661C36.6967 37.8027 36.7437 38.1037 36.8379 38.369C36.9349 38.6315 37.0832 38.8383 37.283 38.9895C37.4827 39.1379 37.738 39.2121 38.049 39.2121ZM44.9356 35.1594V39.7812H44.1995V36.3748L41.7773 39.7812H41.1483V35.1594H41.8843V38.5188L44.3108 35.1594H44.9356ZM50.0301 41.707V39.8668C49.5793 39.9382 49.1685 39.8897 48.7976 39.7213C48.4296 39.5502 48.1357 39.2748 47.9161 38.8954C47.6992 38.5131 47.5908 38.0395 47.5908 37.4746C47.5908 36.9069 47.6992 36.4318 47.9161 36.0495C48.1357 35.6672 48.4296 35.3919 48.7976 35.2236C49.1685 35.0524 49.5793 35.0025 50.0301 35.0738V33.6659H50.7234V35.0738C51.1742 35.0025 51.5836 35.0524 51.9516 35.2236C52.3225 35.3919 52.6163 35.6672 52.8332 36.0495C53.0529 36.4318 53.1627 36.9069 53.1627 37.4746C53.1627 38.0395 53.0529 38.5131 52.8332 38.8954C52.6163 39.2748 52.3225 39.5502 51.9516 39.7213C51.5836 39.8897 51.1742 39.9382 50.7234 39.8668V41.707H50.0301ZM50.0301 39.1693V35.7757C49.799 35.7357 49.5836 35.7429 49.3839 35.7971C49.1842 35.8484 49.0087 35.9454 48.8575 36.0881C48.7063 36.2307 48.5879 36.4176 48.5023 36.6487C48.4168 36.8798 48.374 37.1551 48.374 37.4746C48.374 37.7913 48.4168 38.0652 48.5023 38.2963C48.5908 38.5274 48.7106 38.7142 48.8618 38.8569C49.0159 38.9967 49.1928 39.0937 49.3925 39.1479C49.5922 39.1992 49.8047 39.2064 50.0301 39.1693ZM50.7234 39.1693C50.9488 39.2064 51.1613 39.1992 51.361 39.1479C51.5607 39.0965 51.7376 39.001 51.8917 38.8612C52.0457 38.7185 52.1656 38.5316 52.2512 38.3006C52.3368 38.0695 52.3795 37.7941 52.3795 37.4746C52.3795 37.1522 52.3368 36.8755 52.2512 36.6444C52.1684 36.4133 52.0515 36.2264 51.9002 36.0838C51.749 35.9411 51.5722 35.8441 51.3696 35.7928C51.1699 35.7414 50.9545 35.7357 50.7234 35.7757V39.1693ZM57.891 35.1594V39.7812H57.155V36.3748L54.7328 39.7812H54.1037V35.1594H54.8398V38.5188L57.2662 35.1594H57.891ZM58.6616 39.7812V39.1265C58.8328 39.1579 58.9626 39.1522 59.051 39.1094C59.1423 39.0637 59.2094 38.9853 59.2522 38.874C59.2978 38.7599 59.3349 38.6172 59.3634 38.4461C59.412 38.175 59.4533 37.8726 59.4876 37.5388C59.5246 37.205 59.5575 36.8398 59.586 36.4433C59.6174 36.0438 59.6459 35.6159 59.6716 35.1594H62.9026V39.7812H62.1408V35.8826H60.3648C60.3477 36.1451 60.3263 36.4147 60.3007 36.6915C60.2778 36.9682 60.2536 37.2378 60.2279 37.5003C60.2022 37.7599 60.1737 38.0024 60.1423 38.2278C60.1138 38.4503 60.0824 38.6429 60.0482 38.8055C59.994 39.0851 59.9184 39.3091 59.8214 39.4774C59.7244 39.6429 59.5846 39.7499 59.402 39.7984C59.2194 39.8497 58.9726 39.844 58.6616 39.7812ZM64.1046 39.7812L64.1003 35.1594H64.8663V36.8327H65.8634C65.9975 36.8327 66.1345 36.8355 66.2743 36.8413C66.4141 36.847 66.5353 36.8598 66.638 36.8798C66.8777 36.9254 67.0874 37.0053 67.2671 37.1194C67.4468 37.2335 67.5866 37.389 67.6865 37.5859C67.7863 37.7799 67.8363 38.021 67.8363 38.3091C67.8363 38.7085 67.7321 39.0252 67.5239 39.2592C67.3185 39.4902 67.0489 39.6443 66.7151 39.7213C66.6009 39.747 66.4697 39.7641 66.3213 39.7727C66.1758 39.7784 66.0375 39.7812 65.9062 39.7812H64.1046ZM64.8663 39.1522H65.9191C66.0047 39.1522 66.1002 39.1493 66.2058 39.1436C66.3114 39.1379 66.4055 39.1236 66.4882 39.1008C66.6337 39.058 66.7636 38.9739 66.8777 38.8483C66.9946 38.7228 67.0531 38.5431 67.0531 38.3091C67.0531 38.0723 66.9961 37.8897 66.882 37.7613C66.7707 37.633 66.6238 37.5488 66.4412 37.5088C66.3584 37.4889 66.2714 37.476 66.1801 37.4703C66.0888 37.4646 66.0018 37.4618 65.9191 37.4618H64.8663V39.1522ZM68.7726 39.7812V35.1594H69.4274L71.182 38.7456L72.9365 35.1594H73.5913V39.7812H72.8552V36.7471L71.3831 39.7812H70.9808L69.5087 36.7471V39.7812H68.7726ZM74.7865 39.7812L74.7823 35.1594H75.5483V36.8327H76.2544C76.3885 36.8327 76.5254 36.8355 76.6652 36.8413C76.805 36.847 76.9263 36.8598 77.029 36.8798C77.2686 36.9283 77.4783 37.0096 77.6581 37.1237C77.8378 37.2378 77.9776 37.3919 78.0775 37.5859C78.1773 37.7799 78.2272 38.021 78.2272 38.3091C78.2272 38.7085 78.1231 39.0252 77.9148 39.2592C77.7094 39.4902 77.4398 39.6443 77.106 39.7213C76.9919 39.747 76.8607 39.7641 76.7123 39.7727C76.5668 39.7784 76.4284 39.7812 76.2972 39.7812H74.7865ZM75.5483 39.1522H76.31C76.3956 39.1522 76.4912 39.1493 76.5968 39.1436C76.7023 39.1379 76.7965 39.1236 76.8792 39.1008C77.0247 39.058 77.1545 38.9739 77.2686 38.8483C77.3856 38.7228 77.4441 38.5431 77.4441 38.3091C77.4441 38.0723 77.387 37.8897 77.2729 37.7613C77.1617 37.633 77.0147 37.5488 76.8321 37.5088C76.7494 37.4889 76.6624 37.476 76.5711 37.4703C76.4798 37.4646 76.3928 37.4618 76.31 37.4618H75.5483V39.1522ZM78.7579 39.7812V35.1594H79.5196V39.7812H78.7579ZM14.3765 52.7812V48.1594H16.345C16.462 48.1594 16.5875 48.1665 16.7216 48.1808C16.8586 48.1922 16.9827 48.2136 17.0939 48.245C17.3421 48.3106 17.5461 48.4461 17.7059 48.6516C17.8685 48.8541 17.9498 49.1109 17.9498 49.4219C17.9498 49.5959 17.9227 49.7471 17.8685 49.8755C17.8172 50.0039 17.743 50.1151 17.646 50.2093C17.6032 50.2521 17.5561 50.2906 17.5048 50.3248C17.4534 50.3591 17.4021 50.3862 17.3507 50.4061C17.4506 50.4233 17.5518 50.4618 17.6545 50.5217C17.8172 50.6101 17.9441 50.7342 18.0354 50.894C18.1296 51.0538 18.1766 51.2578 18.1766 51.506C18.1766 51.8198 18.101 52.0794 17.9498 52.2848C17.7986 52.4874 17.5903 52.6272 17.325 52.7042C17.2138 52.7356 17.0911 52.757 16.957 52.7684C16.8229 52.777 16.6931 52.7812 16.5676 52.7812H14.3765ZM15.1468 52.1607H16.5248C16.5847 52.1607 16.656 52.155 16.7387 52.1436C16.8243 52.1322 16.8999 52.1179 16.9655 52.1008C17.1139 52.058 17.2209 51.9781 17.2865 51.8612C17.355 51.7442 17.3892 51.6172 17.3892 51.4803C17.3892 51.2977 17.3379 51.1493 17.2352 51.0352C17.1353 50.9211 17.0026 50.8498 16.8372 50.8212C16.7772 50.8041 16.7116 50.7941 16.6403 50.7913C16.5718 50.7884 16.5105 50.787 16.4563 50.787H15.1468V52.1607ZM15.1468 50.1579H16.2937C16.3736 50.1579 16.4577 50.1537 16.5462 50.1451C16.6346 50.1337 16.7116 50.1151 16.7772 50.0895C16.9085 50.041 17.0041 49.9611 17.064 49.8498C17.1267 49.7357 17.1581 49.6116 17.1581 49.4775C17.1581 49.3291 17.1239 49.1993 17.0554 49.0881C16.9898 48.9739 16.8885 48.8955 16.7516 48.8527C16.6603 48.8185 16.5576 48.7999 16.4435 48.7971C16.3322 48.7914 16.2609 48.7885 16.2295 48.7885H15.1468V50.1579ZM20.7455 52.7812V48.1594H21.4003L23.1549 51.7456L24.9095 48.1594H25.5642V52.7812H24.8281V49.7471L23.356 52.7812H22.9537L21.4816 49.7471V52.7812H20.7455ZM28.0733 52.9096C27.728 52.9096 27.4385 52.8469 27.2045 52.7213C26.9734 52.593 26.798 52.4246 26.6782 52.2164C26.5612 52.0081 26.5027 51.7799 26.5027 51.5316C26.5027 51.2891 26.5483 51.0794 26.6396 50.9026C26.7338 50.7228 26.865 50.5745 27.0333 50.4575C27.2017 50.3377 27.4028 50.2435 27.6368 50.175C27.8564 50.1151 28.1018 50.0638 28.3728 50.021C28.6467 49.9753 28.9234 49.934 29.203 49.8969C29.4826 49.8598 29.7437 49.8241 29.9862 49.7899L29.7123 49.9482C29.7209 49.5374 29.6381 49.2336 29.4641 49.0367C29.2929 48.8399 28.9962 48.7414 28.574 48.7414C28.2944 48.7414 28.049 48.8056 27.8379 48.934C27.6296 49.0595 27.4827 49.2649 27.3971 49.5502L26.6739 49.332C26.7851 48.9269 27.0005 48.6088 27.3201 48.3777C27.6396 48.1466 28.0604 48.031 28.5825 48.031C29.0019 48.031 29.3614 48.1066 29.6609 48.2578C29.9634 48.4062 30.1802 48.6316 30.3114 48.934C30.377 49.0767 30.4184 49.2321 30.4355 49.4005C30.4526 49.5659 30.4612 49.74 30.4612 49.9226V52.7812H29.7851V51.6729L29.9434 51.7756C29.7694 52.1493 29.5254 52.4318 29.2116 52.6229C28.9006 52.8141 28.5212 52.9096 28.0733 52.9096ZM28.1888 52.272C28.4627 52.272 28.6995 52.2235 28.8992 52.1265C29.1018 52.0266 29.2644 51.8968 29.3871 51.7371C29.5097 51.5744 29.5896 51.3976 29.6267 51.2064C29.6695 51.0638 29.6923 50.9054 29.6952 50.7314C29.7009 50.5545 29.7037 50.419 29.7037 50.3248L29.9691 50.4404C29.7209 50.4746 29.4769 50.5074 29.2373 50.5388C28.9976 50.5702 28.7708 50.6044 28.5568 50.6415C28.3429 50.6757 28.1503 50.7171 27.9791 50.7656C27.8536 50.8056 27.7352 50.8569 27.6239 50.9197C27.5155 50.9824 27.4271 51.0638 27.3586 51.1636C27.293 51.2606 27.2602 51.3819 27.2602 51.5274C27.2602 51.6529 27.2915 51.7727 27.3543 51.8868C27.4199 52.001 27.5198 52.0937 27.6539 52.165C27.7908 52.2363 27.9691 52.272 28.1888 52.272ZM31.5696 52.7812L31.5739 48.1594H32.3442V50.3847L34.2828 48.1594H35.2713L33.23 50.4703L35.511 52.7812H34.4454L32.3442 50.5559V52.7812H31.5696ZM37.8005 52.9096C37.3326 52.9096 36.9346 52.8055 36.6065 52.5972C36.2813 52.3861 36.0331 52.0965 35.8619 51.7285C35.6907 51.3605 35.6023 50.9411 35.5966 50.4703C35.6023 49.9882 35.6922 49.5645 35.8662 49.1993C36.0431 48.8313 36.2956 48.5446 36.6237 48.3392C36.9517 48.1337 37.3469 48.031 37.8091 48.031C38.2969 48.031 38.7163 48.1509 39.0672 48.3905C39.421 48.6302 39.6578 48.9583 39.7776 49.3748L39.0244 49.6016C38.9274 49.3334 38.7691 49.1252 38.5494 48.9768C38.3326 48.8284 38.083 48.7543 37.8005 48.7543C37.4838 48.7543 37.2228 48.8284 37.0174 48.9768C36.812 49.1223 36.6593 49.3249 36.5595 49.5845C36.4596 49.8413 36.4083 50.1365 36.4054 50.4703C36.4111 50.9839 36.5295 51.399 36.7606 51.7157C36.9945 52.0295 37.3412 52.1864 37.8005 52.1864C38.1029 52.1864 38.354 52.1179 38.5537 51.981C38.7534 51.8412 38.9046 51.6401 39.0073 51.3776L39.7776 51.5787C39.6179 52.0095 39.3682 52.339 39.0287 52.5673C38.6892 52.7955 38.2798 52.9096 37.8005 52.9096ZM44.4341 48.1594V52.7812H43.698V49.3748L41.2758 52.7812H40.6468V48.1594H41.3828V51.5188L43.8093 48.1594H44.4341ZM45.6283 52.7812V48.1594H46.2831L48.0377 51.7456L49.7923 48.1594H50.447V52.7812H49.711V49.7471L48.2388 52.7812H47.8365L46.3644 49.7471V52.7812H45.6283ZM52.9561 52.9096C52.6109 52.9096 52.3213 52.8469 52.0873 52.7213C51.8562 52.593 51.6808 52.4246 51.561 52.2164C51.444 52.0081 51.3855 51.7799 51.3855 51.5316C51.3855 51.2891 51.4312 51.0794 51.5224 50.9026C51.6166 50.7228 51.7478 50.5745 51.9162 50.4575C52.0845 50.3377 52.2856 50.2435 52.5196 50.175C52.7392 50.1151 52.9846 50.0638 53.2556 50.021C53.5295 49.9753 53.8063 49.934 54.0859 49.8969C54.3654 49.8598 54.6265 49.8241 54.869 49.7899L54.5951 49.9482C54.6037 49.5374 54.5209 49.2336 54.3469 49.0367C54.1757 48.8399 53.879 48.7414 53.4568 48.7414C53.1772 48.7414 52.9318 48.8056 52.7207 48.934C52.5124 49.0595 52.3655 49.2649 52.2799 49.5502L51.5567 49.332C51.6679 48.9269 51.8833 48.6088 52.2029 48.3777C52.5224 48.1466 52.9432 48.031 53.4653 48.031C53.8847 48.031 54.2442 48.1066 54.5438 48.2578C54.8462 48.4062 55.063 48.6316 55.1942 48.934C55.2599 49.0767 55.3012 49.2321 55.3183 49.4005C55.3355 49.5659 55.344 49.74 55.344 49.9226V52.7812H54.6679V51.6729L54.8262 51.7756C54.6522 52.1493 54.4082 52.4318 54.0944 52.6229C53.7834 52.8141 53.404 52.9096 52.9561 52.9096ZM53.0716 52.272C53.3455 52.272 53.5823 52.2235 53.782 52.1265C53.9846 52.0266 54.1472 51.8968 54.2699 51.7371C54.3925 51.5744 54.4724 51.3976 54.5095 51.2064C54.5523 51.0638 54.5751 50.9054 54.578 50.7314C54.5837 50.5545 54.5866 50.419 54.5866 50.3248L54.8519 50.4404C54.6037 50.4746 54.3597 50.5074 54.1201 50.5388C53.8804 50.5702 53.6536 50.6044 53.4397 50.6415C53.2257 50.6757 53.0331 50.7171 52.8619 50.7656C52.7364 50.8056 52.618 50.8569 52.5067 50.9197C52.3983 50.9824 52.3099 51.0638 52.2414 51.1636C52.1758 51.2606 52.143 51.3819 52.143 51.5274C52.143 51.6529 52.1744 51.7727 52.2371 51.8868C52.3027 52.001 52.4026 52.0937 52.5367 52.165C52.6736 52.2363 52.8519 52.272 53.0716 52.272ZM56.0287 52.7812V52.1265C56.1999 52.1579 56.3297 52.1522 56.4182 52.1094C56.5095 52.0637 56.5765 51.9853 56.6193 51.874C56.6649 51.7599 56.702 51.6172 56.7306 51.4461C56.7791 51.175 56.8204 50.8726 56.8547 50.5388C56.8918 50.205 56.9246 49.8398 56.9531 49.4433C56.9845 49.0438 57.013 48.6159 57.0387 48.1594H60.2697V52.7812H59.5079V48.8826H57.732C57.7148 49.1451 57.6935 49.4147 57.6678 49.6915C57.6449 49.9682 57.6207 50.2378 57.595 50.5003C57.5693 50.7599 57.5408 51.0024 57.5094 51.2278C57.4809 51.4503 57.4495 51.6429 57.4153 51.8055C57.3611 52.0851 57.2855 52.3091 57.1885 52.4774C57.0915 52.6429 56.9517 52.7499 56.7691 52.7984C56.5865 52.8497 56.3397 52.844 56.0287 52.7812ZM61.4717 52.7812L61.4674 48.1594H62.2334V49.8327H63.2306C63.3646 49.8327 63.5016 49.8355 63.6414 49.8413C63.7812 49.847 63.9024 49.8598 64.0051 49.8798C64.2448 49.9254 64.4545 50.0053 64.6342 50.1194C64.814 50.2335 64.9538 50.389 65.0536 50.5859C65.1535 50.7799 65.2034 51.021 65.2034 51.3091C65.2034 51.7085 65.0993 52.0252 64.891 52.2592C64.6856 52.4902 64.416 52.6443 64.0822 52.7213C63.9681 52.747 63.8368 52.7641 63.6885 52.7727C63.543 52.7784 63.4046 52.7812 63.2734 52.7812H61.4717ZM62.2334 52.1522H63.2862C63.3718 52.1522 63.4674 52.1493 63.5729 52.1436C63.6785 52.1379 63.7726 52.1236 63.8554 52.1008C64.0009 52.058 64.1307 51.9739 64.2448 51.8483C64.3618 51.7228 64.4203 51.5431 64.4203 51.3091C64.4203 51.0723 64.3632 50.8897 64.2491 50.7613C64.1378 50.633 63.9909 50.5488 63.8083 50.5088C63.7256 50.4889 63.6385 50.476 63.5472 50.4703C63.4559 50.4646 63.3689 50.4618 63.2862 50.4618H62.2334V52.1522ZM66.0144 52.7812V48.1594H66.7761V50.1066H69.2068V48.1594H69.9686V52.7812H69.2068V50.8298H66.7761V52.7812H66.0144ZM73.1359 52.9096C72.6766 52.9096 72.28 52.8055 71.9462 52.5972C71.6153 52.389 71.36 52.1008 71.1802 51.7328C71.0005 51.3647 70.9106 50.9425 70.9106 50.4661C70.9106 49.981 71.0019 49.556 71.1845 49.1908C71.3671 48.8256 71.6253 48.5417 71.9591 48.3392C72.2929 48.1337 72.6852 48.031 73.1359 48.031C73.5981 48.031 73.9961 48.1352 74.3299 48.3434C74.6637 48.5488 74.9191 48.8356 75.0959 49.2036C75.2757 49.5688 75.3655 49.9896 75.3655 50.4661C75.3655 50.9482 75.2757 51.3733 75.0959 51.7413C74.9162 52.1065 74.6594 52.3932 74.3256 52.6015C73.9918 52.8069 73.5953 52.9096 73.1359 52.9096ZM73.1359 52.1864C73.6152 52.1864 73.9719 52.0266 74.2058 51.7071C74.4398 51.3876 74.5567 50.9739 74.5567 50.4661C74.5567 49.944 74.4383 49.5288 74.2015 49.2207C73.9647 48.9098 73.6095 48.7543 73.1359 48.7543C72.8136 48.7543 72.5482 48.827 72.34 48.9725C72.1317 49.118 71.9762 49.3192 71.8735 49.5759C71.7708 49.8327 71.7194 50.1294 71.7194 50.4661C71.7194 50.9853 71.8393 51.4018 72.0789 51.7157C72.3186 52.0295 72.6709 52.1864 73.1359 52.1864ZM76.3035 52.7812V48.1594H76.9582L78.7128 51.7456L80.4674 48.1594H81.1222V52.7812H80.3861V49.7471L78.914 52.7812H78.5117L77.0396 49.7471V52.7812H76.3035ZM84.0266 52.7812L84.0309 48.1594H84.8012V50.3847L86.7398 48.1594H87.7283L85.687 50.4703L87.968 52.7812H86.9024L84.8012 50.5559V52.7812H84.0266ZM89.7077 52.9096C89.3625 52.9096 89.073 52.8469 88.839 52.7213C88.6079 52.593 88.4325 52.4246 88.3126 52.2164C88.1957 52.0081 88.1372 51.7799 88.1372 51.5316C88.1372 51.2891 88.1828 51.0794 88.2741 50.9026C88.3683 50.7228 88.4995 50.5745 88.6678 50.4575C88.8362 50.3377 89.0373 50.2435 89.2712 50.175C89.4909 50.1151 89.7363 50.0638 90.0073 50.021C90.2812 49.9753 90.5579 49.934 90.8375 49.8969C91.1171 49.8598 91.3782 49.8241 91.6207 49.7899L91.3468 49.9482C91.3553 49.5374 91.2726 49.2336 91.0986 49.0367C90.9274 48.8399 90.6307 48.7414 90.2084 48.7414C89.9288 48.7414 89.6835 48.8056 89.4724 48.934C89.2641 49.0595 89.1172 49.2649 89.0316 49.5502L88.3084 49.332C88.4196 48.9269 88.635 48.6088 88.9546 48.3777C89.2741 48.1466 89.6949 48.031 90.217 48.031C90.6364 48.031 90.9959 48.1066 91.2954 48.2578C91.5978 48.4062 91.8147 48.6316 91.9459 48.934C92.0115 49.0767 92.0529 49.2321 92.07 49.4005C92.0871 49.5659 92.0957 49.74 92.0957 49.9226V52.7812H91.4195V51.6729L91.5779 51.7756C91.4038 52.1493 91.1599 52.4318 90.8461 52.6229C90.5351 52.8141 90.1557 52.9096 89.7077 52.9096ZM89.8233 52.272C90.0972 52.272 90.334 52.2235 90.5337 52.1265C90.7362 52.0266 90.8989 51.8968 91.0215 51.7371C91.1442 51.5744 91.2241 51.3976 91.2612 51.2064C91.304 51.0638 91.3268 50.9054 91.3297 50.7314C91.3354 50.5545 91.3382 50.419 91.3382 50.3248L91.6035 50.4404C91.3553 50.4746 91.1114 50.5074 90.8718 50.5388C90.6321 50.5702 90.4053 50.6044 90.1913 50.6415C89.9773 50.6757 89.7848 50.7171 89.6136 50.7656C89.4881 50.8056 89.3697 50.8569 89.2584 50.9197C89.15 50.9824 89.0615 51.0638 88.9931 51.1636C88.9274 51.2606 88.8946 51.3819 88.8946 51.5274C88.8946 51.6529 88.926 51.7727 88.9888 51.8868C89.0544 52.001 89.1543 52.0937 89.2884 52.165C89.4253 52.2363 89.6036 52.272 89.8233 52.272ZM95.99 52.7812V51.1165C95.8359 51.1936 95.6491 51.2592 95.4294 51.3134C95.2126 51.3676 94.9801 51.3947 94.7318 51.3947C94.2611 51.3947 93.8817 51.2891 93.5935 51.078C93.3054 50.8669 93.1171 50.5631 93.0286 50.1665C93.0029 50.0467 92.9844 49.9226 92.973 49.7942C92.9644 49.6658 92.9587 49.5488 92.9559 49.4433C92.953 49.3377 92.9516 49.2607 92.9516 49.2122V48.1594H93.7219V49.2122C93.7219 49.2949 93.7247 49.3976 93.7304 49.5203C93.7362 49.6401 93.7504 49.7571 93.7732 49.8712C93.8303 50.1537 93.9487 50.3662 94.1284 50.5088C94.311 50.6515 94.5678 50.7228 94.8987 50.7228C95.1213 50.7228 95.3267 50.6943 95.515 50.6372C95.7033 50.5802 95.8616 50.5046 95.99 50.4104V48.1594H96.756V52.7812H95.99ZM99.9587 52.9096C99.5051 52.9096 99.1085 52.8098 98.769 52.6101C98.4323 52.4075 98.1699 52.1265 97.9816 51.767C97.7933 51.4047 97.6991 50.9824 97.6991 50.5003C97.6991 49.9953 97.7918 49.5588 97.9773 49.1908C98.1627 48.8199 98.4209 48.5346 98.7519 48.3349C99.0857 48.1323 99.4765 48.031 99.9245 48.031C100.389 48.031 100.785 48.138 101.11 48.352C101.438 48.566 101.683 48.8712 101.846 49.2678C102.011 49.6644 102.083 50.1365 102.06 50.6843H101.29V50.4104C101.281 49.8427 101.165 49.419 100.943 49.1394C100.72 48.857 100.389 48.7157 99.9501 48.7157C99.4794 48.7157 99.1213 48.867 98.876 49.1694C98.6306 49.4718 98.5079 49.9054 98.5079 50.4703C98.5079 51.0153 98.6306 51.4375 98.876 51.7371C99.1213 52.0366 99.4708 52.1864 99.9245 52.1864C100.23 52.1864 100.495 52.1165 100.72 51.9767C100.946 51.8369 101.123 51.6358 101.251 51.3733L101.983 51.6258C101.803 52.0338 101.532 52.3504 101.17 52.5758C100.81 52.7984 100.407 52.9096 99.9587 52.9096ZM98.2512 50.6843V50.0723H101.666V50.6843H98.2512ZM104.96 52.9096C104.492 52.9096 104.094 52.8055 103.766 52.5972C103.441 52.3861 103.192 52.0965 103.021 51.7285C102.85 51.3605 102.762 50.9411 102.756 50.4703C102.762 49.9882 102.851 49.5645 103.026 49.1993C103.202 48.8313 103.455 48.5446 103.783 48.3392C104.111 48.1337 104.506 48.031 104.968 48.031C105.456 48.031 105.876 48.1509 106.227 48.3905C106.58 48.6302 106.817 48.9583 106.937 49.3748L106.184 49.6016C106.087 49.3334 105.928 49.1252 105.709 48.9768C105.492 48.8284 105.242 48.7543 104.96 48.7543C104.643 48.7543 104.382 48.8284 104.177 48.9768C103.971 49.1223 103.819 49.3249 103.719 49.5845C103.619 49.8413 103.568 50.1365 103.565 50.4703C103.57 50.9839 103.689 51.399 103.92 51.7157C104.154 52.0295 104.501 52.1864 104.96 52.1864C105.262 52.1864 105.513 52.1179 105.713 51.981C105.913 51.8412 106.064 51.6401 106.167 51.3776L106.937 51.5787C106.777 52.0095 106.528 52.339 106.188 52.5673C105.849 52.7955 105.439 52.9096 104.96 52.9096ZM108.951 52.7812V48.8527H107.342V48.1594H111.322V48.8527H109.712V52.7812H108.951ZM112.127 52.7812V48.1594H114.096C114.213 48.1594 114.338 48.1665 114.473 48.1808C114.609 48.1922 114.734 48.2136 114.845 48.245C115.093 48.3106 115.297 48.4461 115.457 48.6516C115.619 48.8541 115.701 49.1109 115.701 49.4219C115.701 49.5959 115.674 49.7471 115.619 49.8755C115.568 50.0039 115.494 50.1151 115.397 50.2093C115.354 50.2521 115.307 50.2906 115.256 50.3248C115.204 50.3591 115.153 50.3862 115.102 50.4061C115.201 50.4233 115.303 50.4618 115.405 50.5217C115.568 50.6101 115.695 50.7342 115.786 50.894C115.88 51.0538 115.928 51.2578 115.928 51.506C115.928 51.8198 115.852 52.0794 115.701 52.2848C115.55 52.4874 115.341 52.6272 115.076 52.7042C114.965 52.7356 114.842 52.757 114.708 52.7684C114.574 52.777 114.444 52.7812 114.318 52.7812H112.127ZM112.898 52.1607H114.276C114.336 52.1607 114.407 52.155 114.49 52.1436C114.575 52.1322 114.651 52.1179 114.716 52.1008C114.865 52.058 114.972 51.9781 115.037 51.8612C115.106 51.7442 115.14 51.6172 115.14 51.4803C115.14 51.2977 115.089 51.1493 114.986 51.0352C114.886 50.9211 114.754 50.8498 114.588 50.8212C114.528 50.8041 114.463 50.7941 114.391 50.7913C114.323 50.7884 114.261 50.787 114.207 50.787H112.898V52.1607ZM112.898 50.1579H114.045C114.124 50.1579 114.209 50.1537 114.297 50.1451C114.386 50.1337 114.463 50.1151 114.528 50.0895C114.659 50.041 114.755 49.9611 114.815 49.8498C114.878 49.7357 114.909 49.6116 114.909 49.4775C114.909 49.3291 114.875 49.1993 114.806 49.0881C114.741 48.9739 114.639 48.8955 114.502 48.8527C114.411 48.8185 114.308 48.7999 114.194 48.7971C114.083 48.7914 114.012 48.7885 113.98 48.7885H112.898V50.1579ZM118.79 52.9096C118.336 52.9096 117.94 52.8098 117.6 52.6101C117.264 52.4075 117.001 52.1265 116.813 51.767C116.625 51.4047 116.53 50.9824 116.53 50.5003C116.53 49.9953 116.623 49.5588 116.809 49.1908C116.994 48.8199 117.252 48.5346 117.583 48.3349C117.917 48.1323 118.308 48.031 118.756 48.031C119.221 48.031 119.616 48.138 119.941 48.352C120.269 48.566 120.515 48.8712 120.677 49.2678C120.843 49.6644 120.914 50.1365 120.891 50.6843H120.121V50.4104C120.112 49.8427 119.997 49.419 119.774 49.1394C119.552 48.857 119.221 48.7157 118.781 48.7157C118.311 48.7157 117.953 48.867 117.707 49.1694C117.462 49.4718 117.339 49.9054 117.339 50.4703C117.339 51.0153 117.462 51.4375 117.707 51.7371C117.953 52.0366 118.302 52.1864 118.756 52.1864C119.061 52.1864 119.326 52.1165 119.552 51.9767C119.777 51.8369 119.954 51.6358 120.082 51.3733L120.814 51.6258C120.635 52.0338 120.363 52.3504 120.001 52.5758C119.642 52.7984 119.238 52.9096 118.79 52.9096ZM117.083 50.6843V50.0723H120.498V50.6843H117.083Z" fill="#64748B"/>
<path d="M22.5852 69.6168C22.5852 71.7777 20.8335 73.5294 18.6726 73.5294C16.5116 73.5294 14.7599 71.7777 14.7599 69.6168C14.7599 67.4559 16.5116 65.7041 18.6726 65.7041C19.2864 65.7041 19.8673 65.8455 20.3843 66.0974M21.8516 67.1714L18.428 70.5949L17.4498 69.6168" stroke="#1A8449" stroke-width="0.917031" stroke-linecap="round" stroke-linejoin="round"/>
<path d="M28.2982 72.237C27.9929 72.237 27.709 72.1814 27.4466 72.0701C27.1841 71.956 26.9573 71.7962 26.7661 71.5908C26.5778 71.3825 26.4395 71.1358 26.351 70.8505L27.0828 70.6408C27.177 70.9261 27.3339 71.1429 27.5536 71.2912C27.7732 71.4396 28.02 71.5124 28.2939 71.5095C28.545 71.5038 28.7618 71.4467 28.9444 71.3383C29.1298 71.2271 29.2725 71.0758 29.3723 70.8847C29.475 70.6935 29.5264 70.4724 29.5264 70.2214C29.5264 69.8391 29.4123 69.5295 29.184 69.2927C28.9558 69.0531 28.6562 68.9333 28.2853 68.9333C28.1826 68.9333 28.0742 68.9475 27.9601 68.9761C27.8488 69.0046 27.7447 69.0445 27.6477 69.0959L27.2797 68.4925L29.5649 66.4255L29.6633 66.6823H26.595V65.9547H30.2282V66.6865L28.2811 68.5524L28.2725 68.2828C28.6805 68.2542 29.0371 68.3213 29.3424 68.4839C29.6476 68.6465 29.8844 68.8791 30.0528 69.1815C30.224 69.4839 30.3095 69.8305 30.3095 70.2214C30.3095 70.6151 30.2211 70.9632 30.0442 71.2656C29.8673 71.568 29.6277 71.8062 29.3253 71.9802C29.0228 72.1514 28.6805 72.237 28.2982 72.237ZM33.502 72.2456C33.1026 72.2456 32.746 72.1557 32.4322 71.976C32.1212 71.7934 31.8744 71.5466 31.6918 71.2356C31.5121 70.9218 31.4222 70.5652 31.4222 70.1657V67.9062C31.4222 67.5068 31.5121 67.1501 31.6918 66.8363C31.8744 66.5225 32.1212 66.2757 32.4322 66.096C32.746 65.9162 33.1026 65.8264 33.502 65.8264C33.9014 65.8264 34.2581 65.9162 34.5719 66.096C34.8857 66.2757 35.1325 66.5225 35.3122 66.8363C35.492 67.1501 35.5819 67.5068 35.5819 67.9062V70.1657C35.5819 70.5652 35.492 70.9218 35.3122 71.2356C35.1325 71.5466 34.8857 71.7934 34.5719 71.976C34.2581 72.1557 33.9014 72.2456 33.502 72.2456ZM33.502 71.5138C33.7445 71.5138 33.9642 71.4553 34.1611 71.3383C34.3579 71.2214 34.5148 71.0644 34.6318 70.8676C34.7488 70.6679 34.8073 70.4482 34.8073 70.2085V67.8591C34.8073 67.6166 34.7488 67.3969 34.6318 67.2001C34.5148 67.0032 34.3579 66.8463 34.1611 66.7293C33.9642 66.6124 33.7445 66.5539 33.502 66.5539C33.2624 66.5539 33.0427 66.6124 32.843 66.7293C32.6461 66.8463 32.4892 67.0032 32.3722 67.2001C32.2553 67.3969 32.1968 67.6166 32.1968 67.8591V70.2085C32.1968 70.4482 32.2553 70.6679 32.3722 70.8676C32.4892 71.0644 32.6461 71.2214 32.843 71.3383C33.0427 71.4553 33.2624 71.5138 33.502 71.5138ZM38.151 73.1443V71.4881C38.4106 71.4881 38.5961 71.4039 38.7073 71.2356C38.8186 71.0644 38.9085 70.7834 38.9769 70.3926C39.0226 70.1472 39.0597 69.8847 39.0882 69.6051C39.1167 69.3255 39.141 69.0146 39.161 68.6722C39.1838 68.327 39.2052 67.9347 39.2252 67.4954H42.4091V71.4881H42.8584V73.1443H42.1309V72.1172H38.8785V73.1443H38.151ZM39.3236 71.4881H41.6473V68.1244H39.9142C39.9056 68.327 39.8942 68.5395 39.8799 68.7621C39.8657 68.9818 39.8485 69.2014 39.8286 69.4211C39.8114 69.6408 39.7901 69.8491 39.7644 70.0459C39.7415 70.2399 39.7144 70.414 39.6831 70.568C39.646 70.782 39.6032 70.9632 39.5547 71.1115C39.5062 71.2599 39.4291 71.3854 39.3236 71.4881ZM43.7131 72.1172V67.4954H44.4748V69.4425H46.9055V67.4954H47.6673V72.1172H46.9055V70.1657H44.4748V72.1172H43.7131ZM50.8689 72.2456C50.4153 72.2456 50.0187 72.1457 49.6792 71.946C49.3425 71.7434 49.0801 71.4624 48.8918 71.103C48.7035 70.7406 48.6093 70.3184 48.6093 69.8362C48.6093 69.3312 48.702 68.8947 48.8875 68.5267C49.0729 68.1558 49.3311 67.8705 49.6621 67.6708C49.9959 67.4683 50.3867 67.367 50.8346 67.367C51.2997 67.367 51.6948 67.474 52.0201 67.6879C52.3481 67.9019 52.5935 68.2072 52.7561 68.6037C52.9216 69.0003 52.9929 69.4725 52.9701 70.0202H52.1998V69.7464C52.1912 69.1786 52.0757 68.7549 51.8532 68.4754C51.6306 68.1929 51.2997 68.0517 50.8603 68.0517C50.3896 68.0517 50.0315 68.2029 49.7862 68.5053C49.5408 68.8077 49.4181 69.2414 49.4181 69.8063C49.4181 70.3512 49.5408 70.7734 49.7862 71.073C50.0315 71.3726 50.381 71.5223 50.8346 71.5223C51.1399 71.5223 51.4052 71.4524 51.6306 71.3126C51.856 71.1728 52.0329 70.9717 52.1613 70.7092L52.8931 70.9617C52.7133 71.3697 52.4423 71.6864 52.08 71.9118C51.7205 72.1343 51.3168 72.2456 50.8689 72.2456ZM49.1614 70.0202V69.4083H52.5764V70.0202H49.1614ZM55.9128 66.9561C55.6989 66.9561 55.5034 66.9034 55.3266 66.7978C55.1497 66.6922 55.0084 66.5524 54.9029 66.3784C54.7973 66.2015 54.7445 66.0047 54.7445 65.7878H55.3608C55.3608 65.9391 55.415 66.0689 55.5234 66.1773C55.6318 66.2857 55.7616 66.3399 55.9128 66.3399C56.0669 66.3399 56.1967 66.2857 56.3023 66.1773C56.4107 66.0689 56.4649 65.9391 56.4649 65.7878H57.0811C57.0811 66.0047 57.0284 66.2015 56.9228 66.3784C56.8201 66.5524 56.6789 66.6922 56.4991 66.7978C56.3222 66.9034 56.1268 66.9561 55.9128 66.9561ZM57.7059 67.4954V72.1172H56.9699V68.7107L54.5477 72.1172H53.9186V67.4954H54.6547V70.8547L57.0811 67.4954H57.7059ZM62.2741 72.2456C61.8176 72.2456 61.4139 72.1471 61.063 71.9503C60.7121 71.7506 60.4353 71.4767 60.2328 71.1286L60.8405 70.7349C61.0088 70.9888 61.2099 71.1843 61.4439 71.3212C61.6778 71.4553 61.9446 71.5223 62.2441 71.5223C62.558 71.5223 62.8076 71.451 62.993 71.3084C63.1785 71.1629 63.2712 70.9674 63.2712 70.7221C63.2712 70.5395 63.2256 70.3997 63.1343 70.3027C63.043 70.2057 62.9117 70.1386 62.7405 70.1016C62.5694 70.0645 62.3654 70.0459 62.1286 70.0459H61.6493V69.4168H62.1243C62.4239 69.4168 62.6678 69.3683 62.8561 69.2713C63.0444 69.1743 63.1385 69.0089 63.1385 68.7749C63.1385 68.5353 63.0501 68.3612 62.8732 68.2528C62.6992 68.1416 62.4909 68.0859 62.2484 68.0859C61.9916 68.0859 61.7463 68.1401 61.5123 68.2485C61.2784 68.3541 61.0773 68.4882 60.9089 68.6508L60.4467 68.133C60.6864 67.8876 60.9617 67.6993 61.2727 67.5681C61.5865 67.434 61.9274 67.367 62.2955 67.367C62.5922 67.367 62.8632 67.4197 63.1086 67.5253C63.3568 67.628 63.5536 67.7807 63.6991 67.9832C63.8475 68.1829 63.9217 68.4269 63.9217 68.715C63.9217 68.9604 63.8646 69.1786 63.7505 69.3698C63.6364 69.5609 63.4681 69.7278 63.2455 69.8705L63.2156 69.6009C63.4039 69.6465 63.5594 69.7307 63.682 69.8533C63.8076 69.9732 63.9003 70.1158 63.9602 70.2813C64.0201 70.4468 64.0501 70.6194 64.0501 70.7991C64.0501 71.1015 63.9702 71.3611 63.8104 71.578C63.6535 71.7919 63.441 71.9574 63.1728 72.0744C62.9046 72.1885 62.605 72.2456 62.2741 72.2456ZM66.3031 72.2456C65.9579 72.2456 65.6683 72.1828 65.4344 72.0573C65.2033 71.9289 65.0279 71.7606 64.908 71.5523C64.7911 71.344 64.7326 71.1158 64.7326 70.8676C64.7326 70.6251 64.7782 70.4154 64.8695 70.2385C64.9637 70.0588 65.0949 69.9104 65.2632 69.7934C65.4316 69.6736 65.6327 69.5795 65.8666 69.511C66.0863 69.4511 66.3317 69.3997 66.6027 69.3569C66.8766 69.3113 67.1533 69.2699 67.4329 69.2328C67.7125 69.1957 67.9736 69.1601 68.2161 69.1258L67.9422 69.2842C67.9507 68.8733 67.868 68.5695 67.694 68.3726C67.5228 68.1758 67.2261 68.0774 66.8038 68.0774C66.5242 68.0774 66.2789 68.1416 66.0678 68.2699C65.8595 68.3955 65.7126 68.6009 65.627 68.8862L64.9038 68.6679C65.015 68.2628 65.2304 67.9447 65.55 67.7136C65.8695 67.4825 66.2903 67.367 66.8124 67.367C67.2318 67.367 67.5913 67.4426 67.8908 67.5938C68.1932 67.7421 68.4101 67.9675 68.5413 68.2699C68.6069 68.4126 68.6483 68.5681 68.6654 68.7364C68.6825 68.9019 68.6911 69.0759 68.6911 69.2585V72.1172H68.0149V71.0088L68.1733 71.1115C67.9992 71.4853 67.7553 71.7677 67.4415 71.9588C67.1305 72.15 66.7511 72.2456 66.3031 72.2456ZM66.4187 71.6079C66.6926 71.6079 66.9294 71.5594 67.1291 71.4624C67.3316 71.3626 67.4943 71.2328 67.6169 71.073C67.7396 70.9104 67.8195 70.7335 67.8566 70.5423C67.8994 70.3997 67.9222 70.2414 67.9251 70.0673C67.9308 69.8904 67.9336 69.7549 67.9336 69.6608L68.1989 69.7763C67.9507 69.8105 67.7068 69.8434 67.4672 69.8747C67.2275 69.9061 67.0007 69.9404 66.7867 69.9774C66.5727 70.0117 66.3802 70.0531 66.209 70.1016C66.0835 70.1415 65.9651 70.1928 65.8538 70.2556C65.7454 70.3184 65.6569 70.3997 65.5885 70.4995C65.5228 70.5965 65.49 70.7178 65.49 70.8633C65.49 70.9888 65.5214 71.1087 65.5842 71.2228C65.6498 71.3369 65.7497 71.4296 65.8838 71.5009C66.0207 71.5723 66.199 71.6079 66.4187 71.6079ZM72.5914 72.1172V66.7978L71.4316 67.4996V66.648L72.5914 65.9547H73.3659V72.1172H72.5914ZM77.2042 70.0416V69.3698H78.7319C78.7804 69.3698 78.8446 69.3669 78.9245 69.3612C79.0073 69.3555 79.0857 69.3441 79.1599 69.327C79.351 69.2813 79.5051 69.1915 79.6221 69.0574C79.739 68.9204 79.8232 68.7607 79.8746 68.5781C79.9288 68.3926 79.9559 68.2072 79.9559 68.0217C79.9559 67.8477 79.9302 67.668 79.8788 67.4825C79.8303 67.2971 79.7476 67.1345 79.6306 66.9947C79.5137 66.852 79.3567 66.7593 79.1599 66.7165C79.0914 66.6965 79.013 66.6851 78.9245 66.6823C78.8389 66.6794 78.7747 66.678 78.7319 66.678H77.3839V65.9547H78.7576C78.8004 65.9547 78.8689 65.9562 78.963 65.959C79.06 65.9619 79.157 65.9719 79.254 65.989C79.5878 66.0375 79.8617 66.1573 80.0757 66.3485C80.2925 66.5396 80.4523 66.7793 80.555 67.0674C80.6606 67.3556 80.7133 67.6737 80.7133 68.0217C80.7133 68.3641 80.6606 68.6765 80.555 68.9589C80.4523 69.2385 80.2925 69.471 80.0757 69.6565C79.8617 69.8391 79.5878 69.9561 79.254 70.0074C79.157 70.0217 79.06 70.0317 78.963 70.0374C78.8689 70.0402 78.8004 70.0416 78.7576 70.0416H77.2042ZM76.3226 67.7393V67.2471H81.1498V67.7393H76.3226ZM76.8361 72.1172V65.9547H77.5979V72.1172H76.8361ZM76.3226 68.7963V68.3085H81.1498V68.7963H76.3226Z" fill="#1A8449"/>
<path d="M175.303 25.7812V18.1821L173.646 19.1847V17.9681L175.303 16.9778H176.41V25.7812H175.303ZM181.615 16.8005C182.178 16.8005 182.685 16.935 183.137 17.204C183.59 17.473 183.949 17.8398 184.213 18.3044C184.482 18.769 184.617 19.2968 184.617 19.8878V22.8162C184.617 23.4316 184.485 23.9757 184.22 24.4485C183.955 24.9213 183.588 25.2922 183.119 25.5612C182.655 25.8302 182.121 25.9647 181.517 25.9647C181.036 25.9647 180.586 25.8648 180.166 25.6651C179.751 25.4654 179.398 25.1821 179.109 24.8153L179.922 24.0939C180.101 24.3466 180.331 24.5504 180.613 24.7053C180.894 24.8561 181.195 24.9315 181.517 24.9315C181.909 24.9315 182.253 24.8377 182.551 24.6502C182.852 24.4628 183.087 24.2182 183.254 23.9166C183.425 23.615 183.51 23.289 183.51 22.9385V21.1716L183.749 21.4406C183.496 21.8075 183.172 22.1009 182.777 22.321C182.381 22.5411 181.951 22.6511 181.487 22.6511C180.941 22.6511 180.452 22.5227 180.02 22.266C179.588 22.0092 179.245 21.6628 178.993 21.2267C178.74 20.7865 178.613 20.2933 178.613 19.7472C178.613 19.201 178.75 18.7058 179.023 18.2616C179.296 17.8133 179.659 17.4587 180.111 17.1978C180.568 16.9329 181.069 16.8005 181.615 16.8005ZM181.615 17.852C181.265 17.852 180.945 17.9376 180.655 18.1088C180.37 18.2759 180.142 18.5041 179.971 18.7935C179.799 19.0788 179.714 19.3967 179.714 19.7472C179.714 20.0977 179.797 20.4176 179.965 20.707C180.136 20.9923 180.364 21.2206 180.649 21.3917C180.939 21.5629 181.259 21.6485 181.609 21.6485C181.96 21.6485 182.28 21.5629 182.569 21.3917C182.858 21.2206 183.087 20.9923 183.254 20.707C183.425 20.4176 183.51 20.0977 183.51 19.7472C183.51 19.4008 183.425 19.0849 183.254 18.7996C183.087 18.5102 182.858 18.2799 182.569 18.1088C182.284 17.9376 181.966 17.852 181.615 17.852ZM189.209 16.8005C189.772 16.8005 190.279 16.935 190.732 17.204C191.184 17.473 191.543 17.8398 191.808 18.3044C192.077 18.769 192.211 19.2968 192.211 19.8878V22.8162C192.211 23.4316 192.079 23.9757 191.814 24.4485C191.549 24.9213 191.182 25.2922 190.713 25.5612C190.249 25.8302 189.715 25.9647 189.112 25.9647C188.631 25.9647 188.18 25.8648 187.76 25.6651C187.345 25.4654 186.992 25.1821 186.703 24.8153L187.516 24.0939C187.695 24.3466 187.926 24.5504 188.207 24.7053C188.488 24.8561 188.79 24.9315 189.112 24.9315C189.503 24.9315 189.847 24.8377 190.145 24.6502C190.446 24.4628 190.681 24.2182 190.848 23.9166C191.019 23.615 191.105 23.289 191.105 22.9385V21.1716L191.343 21.4406C191.09 21.8075 190.766 22.1009 190.371 22.321C189.976 22.5411 189.546 22.6511 189.081 22.6511C188.535 22.6511 188.046 22.5227 187.614 22.266C187.182 22.0092 186.839 21.6628 186.587 21.2267C186.334 20.7865 186.208 20.2933 186.208 19.7472C186.208 19.201 186.344 18.7058 186.617 18.2616C186.89 17.8133 187.253 17.4587 187.705 17.1978C188.162 16.9329 188.663 16.8005 189.209 16.8005ZM189.209 17.852C188.859 17.852 188.539 17.9376 188.25 18.1088C187.964 18.2759 187.736 18.5041 187.565 18.7935C187.394 19.0788 187.308 19.3967 187.308 19.7472C187.308 20.0977 187.392 20.4176 187.559 20.707C187.73 20.9923 187.958 21.2206 188.243 21.3917C188.533 21.5629 188.853 21.6485 189.203 21.6485C189.554 21.6485 189.874 21.5629 190.163 21.3917C190.452 21.2206 190.681 20.9923 190.848 20.707C191.019 20.4176 191.105 20.0977 191.105 19.7472C191.105 19.4008 191.019 19.0849 190.848 18.7996C190.681 18.5102 190.452 18.2799 190.163 18.1088C189.878 17.9376 189.56 17.852 189.209 17.852ZM196.372 22.4494V21.4895H200.547C200.617 21.4895 200.698 21.4855 200.792 21.4773C200.89 21.4692 200.992 21.4529 201.098 21.4284C201.505 21.3306 201.807 21.1288 202.002 20.8232C202.198 20.5175 202.296 20.167 202.296 19.7716C202.296 19.519 202.255 19.2744 202.174 19.038C202.092 18.8016 201.962 18.5958 201.782 18.4206C201.607 18.2453 201.379 18.1271 201.098 18.066C201 18.0374 200.898 18.0211 200.792 18.0171C200.69 18.013 200.609 18.0109 200.547 18.0109H198.071V16.9778H200.584C200.645 16.9778 200.733 16.9798 200.847 16.9839C200.965 16.9879 201.094 17.0022 201.232 17.0267C201.709 17.1 202.108 17.2631 202.43 17.5157C202.756 17.7684 203.001 18.0863 203.164 18.4695C203.327 18.8526 203.409 19.2785 203.409 19.7472C203.409 20.4441 203.225 21.0331 202.858 21.514C202.492 21.9909 201.949 22.2863 201.232 22.4005C201.094 22.4208 200.965 22.4351 200.847 22.4433C200.733 22.4473 200.645 22.4494 200.584 22.4494H196.372ZM196.372 24.3874V23.4887H201.263V24.3874H196.372ZM197.289 25.7812V16.9778H198.377V25.7812H197.289Z" fill="#070A13"/>
<path d="M152.512 39.7812V33.6188H156.406V34.342H153.273V36.2721H155.893V36.9953H153.273V39.058H156.406V39.7812H152.512ZM156.921 39.7812L158.787 37.4703L157.011 35.1594H157.858L159.575 37.4275V35.1594H160.268V37.4275L161.984 35.1594H162.831L161.055 37.4703L162.921 39.7812H162.035L160.268 37.5131V39.7812H159.575V37.5131L157.807 39.7812H156.921ZM165.439 39.9096C164.985 39.9096 164.589 39.8098 164.249 39.6101C163.913 39.4075 163.65 39.1265 163.462 38.767C163.273 38.4047 163.179 37.9824 163.179 37.5003C163.179 36.9953 163.272 36.5588 163.457 36.1908C163.643 35.8199 163.901 35.5346 164.232 35.3349C164.566 35.1323 164.957 35.031 165.405 35.031C165.87 35.031 166.265 35.138 166.59 35.352C166.918 35.566 167.164 35.8712 167.326 36.2678C167.492 36.6644 167.563 37.1365 167.54 37.6843H166.77V37.4104C166.761 36.8427 166.646 36.419 166.423 36.1394C166.201 35.857 165.87 35.7157 165.43 35.7157C164.96 35.7157 164.602 35.867 164.356 36.1694C164.111 36.4718 163.988 36.9054 163.988 37.4703C163.988 38.0153 164.111 38.4375 164.356 38.7371C164.602 39.0366 164.951 39.1864 165.405 39.1864C165.71 39.1864 165.975 39.1165 166.201 38.9767C166.426 38.8369 166.603 38.6358 166.731 38.3733L167.463 38.6258C167.283 39.0338 167.012 39.3504 166.65 39.5758C166.29 39.7984 165.887 39.9096 165.439 39.9096ZM163.731 37.6843V37.0723H167.146V37.6843H163.731ZM168.363 39.7812V35.1594H169.018L170.773 38.7456L172.527 35.1594H173.182V39.7812H172.446V36.7471L170.974 39.7812H170.571L169.099 36.7471V39.7812H168.363ZM176.38 39.9096C175.926 39.9096 175.53 39.8098 175.19 39.6101C174.854 39.4075 174.591 39.1265 174.403 38.767C174.215 38.4047 174.12 37.9824 174.12 37.5003C174.12 36.9953 174.213 36.5588 174.399 36.1908C174.584 35.8199 174.842 35.5346 175.173 35.3349C175.507 35.1323 175.898 35.031 176.346 35.031C176.811 35.031 177.206 35.138 177.531 35.352C177.859 35.566 178.105 35.8712 178.267 36.2678C178.433 36.6644 178.504 37.1365 178.481 37.6843H177.711V37.4104C177.702 36.8427 177.587 36.419 177.364 36.1394C177.142 35.857 176.811 35.7157 176.371 35.7157C175.901 35.7157 175.543 35.867 175.297 36.1694C175.052 36.4718 174.929 36.9054 174.929 37.4703C174.929 38.0153 175.052 38.4375 175.297 38.7371C175.543 39.0366 175.892 39.1864 176.346 39.1864C176.651 39.1864 176.916 39.1165 177.142 38.9767C177.367 38.8369 177.544 38.6358 177.672 38.3733L178.404 38.6258C178.224 39.0338 177.953 39.3504 177.591 39.5758C177.232 39.7984 176.828 39.9096 176.38 39.9096ZM174.672 37.6843V37.0723H178.087V37.6843H174.672ZM181.381 39.9096C180.913 39.9096 180.515 39.8055 180.187 39.5972C179.862 39.3861 179.614 39.0965 179.443 38.7285C179.271 38.3605 179.183 37.9411 179.177 37.4703C179.183 36.9882 179.273 36.5645 179.447 36.1993C179.624 35.8313 179.876 35.5446 180.204 35.3392C180.532 35.1337 180.928 35.031 181.39 35.031C181.878 35.031 182.297 35.1509 182.648 35.3905C183.002 35.6302 183.238 35.9583 183.358 36.3748L182.605 36.6016C182.508 36.3334 182.35 36.1252 182.13 35.9768C181.913 35.8284 181.664 35.7543 181.381 35.7543C181.064 35.7543 180.803 35.8284 180.598 35.9768C180.393 36.1223 180.24 36.3249 180.14 36.5845C180.04 36.8413 179.989 37.1365 179.986 37.4703C179.992 37.9839 180.11 38.399 180.341 38.7157C180.575 39.0295 180.922 39.1864 181.381 39.1864C181.684 39.1864 181.935 39.1179 182.134 38.981C182.334 38.8412 182.485 38.6401 182.588 38.3776L183.358 38.5787C183.198 39.0095 182.949 39.339 182.609 39.5673C182.27 39.7955 181.86 39.9096 181.381 39.9096ZM187.044 39.7812V38.108H186.047C185.93 38.108 185.8 38.1037 185.658 38.0951C185.518 38.0837 185.387 38.068 185.264 38.0481C184.93 37.9853 184.648 37.8384 184.417 37.6073C184.188 37.3762 184.074 37.0567 184.074 36.6487C184.074 36.2521 184.181 35.934 184.395 35.6944C184.612 35.4518 184.879 35.2949 185.196 35.2236C185.338 35.1894 185.482 35.1708 185.628 35.168C185.776 35.1623 185.902 35.1594 186.004 35.1594H187.806L187.81 39.7812H187.044ZM183.933 39.7812L185.161 37.8983H185.983L184.755 39.7812H183.933ZM185.992 37.4789H187.044V35.7885H185.992C185.926 35.7885 185.839 35.7914 185.73 35.7971C185.625 35.8028 185.524 35.8199 185.427 35.8484C185.335 35.8741 185.245 35.9212 185.157 35.9896C185.071 36.0581 185 36.1465 184.943 36.255C184.886 36.3634 184.857 36.4918 184.857 36.6401C184.857 36.8541 184.917 37.0281 185.037 37.1622C185.157 37.2934 185.303 37.3819 185.474 37.4275C185.568 37.4504 185.661 37.4646 185.752 37.4703C185.846 37.476 185.926 37.4789 185.992 37.4789ZM191.794 39.7812V38.1165C191.64 38.1936 191.453 38.2592 191.234 38.3134C191.017 38.3676 190.784 38.3947 190.536 38.3947C190.065 38.3947 189.686 38.2891 189.398 38.078C189.11 37.8669 188.921 37.5631 188.833 37.1665C188.807 37.0467 188.789 36.9226 188.777 36.7942C188.769 36.6658 188.763 36.5488 188.76 36.4433C188.757 36.3377 188.756 36.2607 188.756 36.2122V35.1594H189.526V36.2122C189.526 36.2949 189.529 36.3976 189.535 36.5203C189.54 36.6401 189.555 36.7571 189.578 36.8712C189.635 37.1537 189.753 37.3662 189.933 37.5088C190.115 37.6515 190.372 37.7228 190.703 37.7228C190.926 37.7228 191.131 37.6943 191.319 37.6372C191.508 37.5802 191.666 37.5046 191.794 37.4104V35.1594H192.56V39.7812H191.794ZM193.756 39.7812V35.1594H194.518V37.1066H196.948V35.1594H197.71V39.7812H196.948V37.8298H194.518V39.7812H193.756ZM200.877 39.9096C200.418 39.9096 200.022 39.8055 199.688 39.5972C199.357 39.389 199.102 39.1008 198.922 38.7328C198.742 38.3647 198.652 37.9425 198.652 37.4661C198.652 36.981 198.743 36.556 198.926 36.1908C199.109 35.8256 199.367 35.5417 199.701 35.3392C200.034 35.1337 200.427 35.031 200.877 35.031C201.34 35.031 201.738 35.1352 202.071 35.3434C202.405 35.5488 202.661 35.8356 202.837 36.2036C203.017 36.5688 203.107 36.9896 203.107 37.4661C203.107 37.9482 203.017 38.3733 202.837 38.7413C202.658 39.1065 202.401 39.3932 202.067 39.6015C201.733 39.8069 201.337 39.9096 200.877 39.9096ZM200.877 39.1864C201.357 39.1864 201.713 39.0266 201.947 38.7071C202.181 38.3876 202.298 37.9739 202.298 37.4661C202.298 36.944 202.18 36.5288 201.943 36.2207C201.706 35.9098 201.351 35.7543 200.877 35.7543C200.555 35.7543 200.29 35.827 200.082 35.9725C199.873 36.118 199.718 36.3192 199.615 36.5759C199.512 36.8327 199.461 37.1294 199.461 37.4661C199.461 37.9853 199.581 38.4018 199.82 38.7157C200.06 39.0295 200.412 39.1864 200.877 39.1864Z" fill="#64748B"/>
<g clip-path="url(#clip1_569_8795)">
<path d="M154.016 70.0586V63.8961H154.778V66.7891L157.474 63.8961H158.432L155.633 66.8875L158.65 70.0586H157.666L154.778 67.0458V70.0586H154.016ZM160.992 70.187C160.538 70.187 160.142 70.0871 159.802 69.8874C159.465 69.6849 159.203 69.4038 159.015 69.0444C158.826 68.682 158.732 68.2598 158.732 67.7776C158.732 67.2727 158.825 66.8361 159.01 66.4681C159.196 66.0972 159.454 65.8119 159.785 65.6122C160.119 65.4097 160.51 65.3084 160.958 65.3084C161.423 65.3084 161.818 65.4154 162.143 65.6293C162.471 65.8433 162.716 66.1486 162.879 66.5451C163.045 66.9417 163.116 67.4139 163.093 67.9617H162.323V67.6878C162.314 67.12 162.199 66.6964 161.976 66.4168C161.754 66.1343 161.423 65.9931 160.983 65.9931C160.513 65.9931 160.154 66.1443 159.909 66.4467C159.664 66.7491 159.541 67.1828 159.541 67.7477C159.541 68.2926 159.664 68.7148 159.909 69.0144C160.154 69.314 160.504 69.4637 160.958 69.4637C161.263 69.4637 161.528 69.3938 161.754 69.2541C161.979 69.1143 162.156 68.9131 162.284 68.6506L163.016 68.9031C162.836 69.3111 162.565 69.6278 162.203 69.8532C161.843 70.0757 161.44 70.187 160.992 70.187ZM159.284 67.9617V67.3497H162.699V67.9617H159.284ZM164.042 70.0586V65.4368H164.778V69.3653H166.37V65.4368H167.106V69.3653H168.693V65.4368H169.429V70.0586H164.042ZM172.503 70.1913C172.066 70.1884 171.694 70.0943 171.386 69.9088C171.077 69.7205 170.838 69.4452 170.667 69.0829C170.495 68.7205 170.4 68.2769 170.38 67.752C170.369 67.5095 170.371 67.2427 170.388 66.9517C170.408 66.6607 170.44 66.3811 170.483 66.1129C170.528 65.8447 170.585 65.6236 170.654 65.4496C170.731 65.2413 170.839 65.0488 170.979 64.8719C171.122 64.6921 171.281 64.5438 171.458 64.4268C171.638 64.3041 171.839 64.2086 172.062 64.1401C172.284 64.0716 172.517 64.0188 172.759 63.9817C173.005 63.9418 173.25 63.9076 173.495 63.879C173.741 63.8476 173.975 63.8106 174.197 63.7678L174.274 64.4525C174.117 64.4867 173.932 64.5167 173.718 64.5423C173.504 64.5652 173.281 64.5923 173.05 64.6237C172.822 64.655 172.602 64.6993 172.391 64.7563C172.183 64.8105 172.003 64.8861 171.852 64.9831C171.63 65.1172 171.458 65.3184 171.339 65.5865C171.222 65.8519 171.15 66.15 171.125 66.481C171.301 66.2071 171.531 66.0059 171.814 65.8775C172.096 65.7492 172.397 65.685 172.717 65.685C173.13 65.685 173.487 65.782 173.786 65.976C174.086 66.1671 174.316 66.431 174.475 66.7677C174.638 67.1043 174.719 67.4881 174.719 67.9189C174.719 68.3753 174.628 68.7748 174.445 69.1171C174.263 69.4595 174.005 69.7248 173.671 69.9131C173.34 70.1014 172.95 70.1941 172.503 70.1913ZM172.55 69.468C172.998 69.468 173.337 69.3297 173.568 69.0529C173.799 68.7733 173.915 68.4024 173.915 67.9403C173.915 67.4667 173.795 67.0943 173.555 66.8233C173.316 66.5494 172.979 66.4125 172.545 66.4125C172.106 66.4125 171.769 66.5494 171.535 66.8233C171.304 67.0943 171.189 67.4667 171.189 67.9403C171.189 68.4167 171.306 68.7904 171.54 69.0615C171.774 69.3325 172.11 69.468 172.55 69.468ZM177.329 70.187C176.852 70.187 176.444 70.0729 176.105 69.8446C175.765 69.6164 175.513 69.2869 175.347 68.8561L176.118 68.6549C176.223 68.9174 176.376 69.1185 176.575 69.2583C176.778 69.3953 177.028 69.4637 177.324 69.4637C177.738 69.4637 178.059 69.3368 178.287 69.0829C178.516 68.8261 178.651 68.4852 178.694 68.0601H176.802V67.431H178.694C178.654 67.0173 178.523 66.6807 178.3 66.421C178.078 66.1614 177.758 66.0316 177.342 66.0316C177.053 66.0316 176.799 66.1044 176.58 66.2499C176.363 66.3954 176.203 66.6051 176.1 66.8789L175.347 66.6521C175.47 66.2356 175.708 65.9075 176.062 65.6679C176.416 65.4282 176.839 65.3084 177.333 65.3084C177.789 65.3084 178.182 65.4111 178.51 65.6165C178.838 65.8219 179.089 66.1086 179.263 66.4767C179.44 66.8447 179.528 67.2698 179.528 67.752C179.528 68.2313 179.441 68.6535 179.267 69.0187C179.093 69.3839 178.842 69.6706 178.514 69.8789C178.186 70.0843 177.791 70.187 177.329 70.187ZM180.466 70.0586L180.47 65.4368H181.24V67.6621L183.179 65.4368H184.167L182.126 67.7477L184.407 70.0586H183.342L181.24 67.8333V70.0586H180.466ZM188.37 70.187C188.053 70.187 187.758 70.1214 187.484 69.9901C187.213 69.8589 186.98 69.6791 186.786 69.4509C186.595 69.2198 186.458 68.9545 186.375 68.6549L187.107 68.4581C187.158 68.6606 187.25 68.8361 187.381 68.9844C187.512 69.1299 187.665 69.2441 187.839 69.3268C188.016 69.4067 188.2 69.4466 188.391 69.4466C188.642 69.4466 188.867 69.3867 189.067 69.2669C189.27 69.1442 189.429 68.983 189.546 68.7833C189.663 68.5807 189.722 68.3596 189.722 68.12C189.722 67.8718 189.661 67.6478 189.538 67.4481C189.418 67.2456 189.257 67.0858 189.054 66.9688C188.852 66.8518 188.631 66.7934 188.391 66.7934C188.12 66.7934 187.887 66.8504 187.693 66.9645C187.502 67.0758 187.351 67.2127 187.24 67.3754L186.564 67.1186L186.752 63.8961H190.06V64.6194H187.12L187.458 64.3027L187.3 66.8832L187.133 66.665C187.304 66.4824 187.508 66.3412 187.745 66.2413C187.984 66.1414 188.228 66.0915 188.477 66.0915C188.859 66.0915 189.201 66.1814 189.504 66.3611C189.806 66.538 190.046 66.7805 190.223 67.0886C190.399 67.3939 190.488 67.7377 190.488 68.12C190.488 68.4994 190.391 68.8461 190.197 69.1599C190.003 69.4709 189.745 69.7205 189.422 69.9088C189.103 70.0943 188.752 70.187 188.37 70.187ZM192.196 70.0586L191.683 69.5451L197.34 63.8961L197.854 64.4097L192.196 70.0586ZM196.57 70.187C196.287 70.187 196.029 70.1185 195.795 69.9816C195.564 69.8418 195.379 69.6563 195.239 69.4252C195.099 69.1913 195.029 68.9317 195.029 68.6464C195.029 68.3668 195.1 68.11 195.243 67.8761C195.386 67.6421 195.574 67.4552 195.808 67.3154C196.042 67.1757 196.296 67.1058 196.57 67.1058C196.852 67.1058 197.11 67.1757 197.344 67.3154C197.578 67.4524 197.764 67.6378 197.901 67.8718C198.04 68.1029 198.11 68.3611 198.11 68.6464C198.11 68.9317 198.04 69.1913 197.901 69.4252C197.764 69.6563 197.578 69.8418 197.344 69.9816C197.11 70.1185 196.852 70.187 196.57 70.187ZM196.57 69.5151C196.727 69.5151 196.871 69.4752 197.002 69.3953C197.136 69.3154 197.242 69.2098 197.319 69.0786C197.399 68.9474 197.438 68.8033 197.438 68.6464C197.438 68.4895 197.399 68.3454 197.319 68.2141C197.242 68.08 197.136 67.9745 197.002 67.8975C196.871 67.8176 196.727 67.7776 196.57 67.7776C196.413 67.7776 196.269 67.8176 196.137 67.8975C196.006 67.9745 195.901 68.08 195.821 68.2141C195.741 68.3454 195.701 68.4895 195.701 68.6464C195.701 68.8033 195.741 68.9474 195.821 69.0786C195.901 69.2098 196.006 69.3154 196.137 69.3953C196.269 69.4752 196.413 69.5151 196.57 69.5151ZM192.966 66.849C192.684 66.849 192.426 66.7805 192.192 66.6436C191.958 66.5038 191.771 66.3183 191.631 66.0872C191.494 65.8533 191.426 65.5937 191.426 65.3084C191.426 65.0288 191.497 64.772 191.64 64.5381C191.782 64.3041 191.971 64.1173 192.205 63.9775C192.439 63.8377 192.693 63.7678 192.966 63.7678C193.249 63.7678 193.506 63.8377 193.737 63.9775C193.971 64.1144 194.158 64.2998 194.297 64.5338C194.437 64.7649 194.507 65.0231 194.507 65.3084C194.507 65.5937 194.437 65.8533 194.297 66.0872C194.158 66.3183 193.971 66.5038 193.737 66.6436C193.506 66.7805 193.249 66.849 192.966 66.849ZM192.966 66.1771C193.123 66.1771 193.267 66.1372 193.399 66.0573C193.533 65.9774 193.638 65.8718 193.715 65.7406C193.795 65.6094 193.835 65.4653 193.835 65.3084C193.835 65.1515 193.795 65.0074 193.715 64.8761C193.638 64.7421 193.533 64.6365 193.399 64.5595C193.267 64.4796 193.123 64.4396 192.966 64.4396C192.809 64.4396 192.665 64.4796 192.534 64.5595C192.403 64.6365 192.297 64.7421 192.217 64.8761C192.138 65.0074 192.098 65.1515 192.098 65.3084C192.098 65.4653 192.138 65.6094 192.217 65.7406C192.297 65.8718 192.403 65.9774 192.534 66.0573C192.665 66.1372 192.809 66.1771 192.966 66.1771Z" fill="#7445FF"/>
</g>
<rect x="147.825" y="59.917" width="56.393" height="15.2838" rx="7.64192" stroke="#7445FF" stroke-width="0.611354"/>
<g clip-path="url(#clip2_569_8795)">
<rect x="13.7816" y="88.3447" width="190.131" height="22.0087" fill="#7445FF"/>
<path d="M83.7401 101.849V95.6862H88.5502V101.849H87.7885V96.4094H84.5018V101.849H83.7401ZM91.7183 101.977C91.259 101.977 90.8624 101.873 90.5286 101.665C90.1977 101.456 89.9423 101.168 89.7626 100.8C89.5828 100.432 89.493 100.01 89.493 99.5334C89.493 99.0484 89.5843 98.6233 89.7669 98.2582C89.9494 97.893 90.2076 97.6091 90.5414 97.4065C90.8752 97.2011 91.2675 97.0984 91.7183 97.0984C92.1805 97.0984 92.5785 97.2025 92.9123 97.4108C93.2461 97.6162 93.5014 97.903 93.6783 98.271C93.858 98.6362 93.9479 99.057 93.9479 99.5334C93.9479 100.016 93.858 100.441 93.6783 100.809C93.4986 101.174 93.2418 101.461 92.908 101.669C92.5742 101.874 92.1776 101.977 91.7183 101.977ZM91.7183 101.254C92.1976 101.254 92.5542 101.094 92.7882 100.774C93.0221 100.455 93.1391 100.041 93.1391 99.5334C93.1391 99.0113 93.0207 98.5962 92.7839 98.2881C92.5471 97.9771 92.1919 97.8216 91.7183 97.8216C91.3959 97.8216 91.1306 97.8944 90.9223 98.0399C90.714 98.1854 90.5586 98.3865 90.4559 98.6433C90.3531 98.9001 90.3018 99.1968 90.3018 99.5334C90.3018 100.053 90.4216 100.469 90.6613 100.783C90.9009 101.097 91.2533 101.254 91.7183 101.254ZM94.5478 102.876V101.22C94.8074 101.22 94.9928 101.135 95.1041 100.967C95.2154 100.796 95.3052 100.515 95.3737 100.124C95.4194 99.8786 95.4564 99.6162 95.485 99.3366C95.5135 99.057 95.5378 98.746 95.5577 98.4037C95.5805 98.0584 95.6019 97.6662 95.6219 97.2268H98.8058V101.22H99.2552V102.876H98.5277V101.849H95.2753V102.876H94.5478ZM95.7203 101.22H98.0441V97.8559H96.3109C96.3024 98.0584 96.2909 98.271 96.2767 98.4935C96.2624 98.7132 96.2453 98.9329 96.2253 99.1526C96.2082 99.3722 96.1868 99.5805 96.1611 99.7774C96.1383 99.9714 96.1112 100.145 96.0798 100.299C96.0427 100.513 95.9999 100.695 95.9514 100.843C95.9029 100.991 95.8259 101.117 95.7203 101.22ZM100.11 101.849L100.114 97.2268H100.884V99.4521L102.823 97.2268H103.812L101.77 99.5377L104.051 101.849H102.986L100.884 99.6233V101.849H100.11ZM103.966 101.849V101.194C104.137 101.225 104.267 101.22 104.355 101.177C104.446 101.131 104.513 101.053 104.556 100.941C104.602 100.827 104.639 100.685 104.667 100.513C104.716 100.242 104.757 99.94 104.792 99.6062C104.829 99.2724 104.861 98.9072 104.89 98.5106C104.921 98.1112 104.95 97.6833 104.976 97.2268H108.207V101.849H107.445V97.95H105.669C105.652 98.2125 105.63 98.4821 105.605 98.7589C105.582 99.0356 105.558 99.3052 105.532 99.5677C105.506 99.8273 105.478 100.07 105.446 100.295C105.418 100.518 105.386 100.71 105.352 100.873C105.298 101.153 105.222 101.376 105.125 101.545C105.028 101.71 104.889 101.817 104.706 101.866C104.523 101.917 104.277 101.911 103.966 101.849ZM113.179 101.977C112.785 101.977 112.437 101.893 112.135 101.725C111.835 101.556 111.594 101.318 111.411 101.01C111.229 100.702 111.115 100.338 111.069 99.9186H110.166V101.849H109.404V97.2268H110.166V99.1568H111.065C111.11 98.7289 111.226 98.3609 111.411 98.0527C111.597 97.7446 111.841 97.5092 112.143 97.3466C112.446 97.1812 112.794 97.0984 113.187 97.0984C113.647 97.0984 114.042 97.2025 114.373 97.4108C114.707 97.6191 114.962 97.9058 115.139 98.271C115.319 98.6362 115.408 99.0556 115.408 99.5292C115.408 100.011 115.317 100.436 115.135 100.804C114.955 101.172 114.698 101.461 114.364 101.669C114.033 101.874 113.638 101.977 113.179 101.977ZM113.166 101.254C113.651 101.254 114.01 101.095 114.244 100.779C114.481 100.459 114.6 100.044 114.6 99.5334C114.6 99.0085 114.48 98.592 114.24 98.2838C114.003 97.9757 113.647 97.8216 113.17 97.8216C112.711 97.8216 112.361 97.9743 112.122 98.2795C111.882 98.5848 111.762 99.0014 111.762 99.5292C111.762 100.051 111.881 100.469 112.117 100.783C112.357 101.097 112.707 101.254 113.166 101.254ZM119.128 101.849V100.184C118.974 100.261 118.787 100.327 118.567 100.381C118.35 100.435 118.118 100.462 117.87 100.462C117.399 100.462 117.019 100.357 116.731 100.145C116.443 99.9343 116.255 99.6304 116.166 99.2339C116.141 99.114 116.122 98.9899 116.111 98.8616C116.102 98.7332 116.096 98.6162 116.094 98.5106C116.091 98.4051 116.089 98.3281 116.089 98.2795V97.2268H116.86V98.2795C116.86 98.3623 116.862 98.465 116.868 98.5877C116.874 98.7075 116.888 98.8245 116.911 98.9386C116.968 99.221 117.086 99.4336 117.266 99.5762C117.449 99.7189 117.705 99.7902 118.036 99.7902C118.259 99.7902 118.464 99.7617 118.653 99.7046C118.841 99.6476 118.999 99.572 119.128 99.4778V97.2268H119.894V101.849H119.128ZM124.877 97.2268V101.849H124.141V98.4422L121.718 101.849H121.089V97.2268H121.825V100.586L124.252 97.2268H124.877ZM127.299 101.849V97.9201H125.69V97.2268H129.67V97.9201H128.061V101.849H127.299ZM130.48 101.849L130.476 97.2268H131.242V98.9001H132.239C132.373 98.9001 132.51 98.9029 132.65 98.9086C132.789 98.9143 132.911 98.9272 133.013 98.9471C133.253 98.9928 133.463 99.0727 133.643 99.1868C133.822 99.3009 133.962 99.4564 134.062 99.6533C134.162 99.8473 134.212 100.088 134.212 100.376C134.212 100.776 134.108 101.093 133.899 101.327C133.694 101.558 133.424 101.712 133.09 101.789C132.976 101.814 132.845 101.832 132.697 101.84C132.551 101.846 132.413 101.849 132.282 101.849H130.48ZM131.242 101.22H132.294C132.38 101.22 132.476 101.217 132.581 101.211C132.687 101.205 132.781 101.191 132.864 101.168C133.009 101.125 133.139 101.041 133.253 100.916C133.37 100.79 133.429 100.61 133.429 100.376C133.429 100.14 133.371 99.9571 133.257 99.8287C133.146 99.7003 132.999 99.6162 132.817 99.5762C132.734 99.5563 132.647 99.5434 132.556 99.5377C132.464 99.532 132.377 99.5292 132.294 99.5292H131.242V101.22Z" fill="white"/>
</g>
<g clip-path="url(#clip3_569_8795)">
<path d="M14.4428 126.689V120.527H19.2529V126.689H18.4912V121.25H15.2045V126.689H14.4428ZM22.421 126.818C21.9617 126.818 21.5651 126.714 21.2313 126.505C20.9004 126.297 20.645 126.009 20.4653 125.641C20.2856 125.273 20.1957 124.851 20.1957 124.374C20.1957 123.889 20.287 123.464 20.4696 123.099C20.6522 122.734 20.9104 122.45 21.2442 122.247C21.578 122.042 21.9702 121.939 22.421 121.939C22.8832 121.939 23.2812 122.043 23.615 122.252C23.9488 122.457 24.2041 122.744 24.381 123.112C24.5608 123.477 24.6506 123.898 24.6506 124.374C24.6506 124.856 24.5608 125.282 24.381 125.65C24.2013 126.015 23.9445 126.301 23.6107 126.51C23.2769 126.715 22.8803 126.818 22.421 126.818ZM22.421 126.095C22.9003 126.095 23.2569 125.935 23.4909 125.615C23.7248 125.296 23.8418 124.882 23.8418 124.374C23.8418 123.852 23.7234 123.437 23.4866 123.129C23.2498 122.818 22.8946 122.662 22.421 122.662C22.0986 122.662 21.8333 122.735 21.625 122.881C21.4168 123.026 21.2613 123.227 21.1586 123.484C21.0559 123.741 21.0045 124.038 21.0045 124.374C21.0045 124.893 21.1243 125.31 21.364 125.624C21.6036 125.938 21.956 126.095 22.421 126.095ZM25.2505 127.717V126.06C25.5101 126.06 25.6955 125.976 25.8068 125.808C25.9181 125.637 26.0079 125.356 26.0764 124.965C26.1221 124.719 26.1592 124.457 26.1877 124.177C26.2162 123.898 26.2405 123.587 26.2604 123.244C26.2833 122.899 26.3047 122.507 26.3246 122.068H29.5086V126.06H29.9579V127.717H29.2304V126.689H25.978V127.717H25.2505ZM26.4231 126.06H28.7468V122.697H27.0136C27.0051 122.899 26.9937 123.112 26.9794 123.334C26.9651 123.554 26.948 123.774 26.928 123.993C26.9109 124.213 26.8895 124.421 26.8638 124.618C26.841 124.812 26.8139 124.986 26.7825 125.14C26.7454 125.354 26.7027 125.535 26.6541 125.684C26.6056 125.832 26.5286 125.958 26.4231 126.06ZM32.9394 126.818C32.5058 126.818 32.1406 126.711 31.8439 126.497C31.5472 126.28 31.3218 125.988 31.1677 125.62C31.0165 125.249 30.9409 124.834 30.9409 124.374C30.9409 123.909 31.0165 123.493 31.1677 123.125C31.3218 122.757 31.5472 122.467 31.8439 122.256C32.1434 122.045 32.5101 121.939 32.9437 121.939C33.3717 121.939 33.7397 122.046 34.0478 122.26C34.3588 122.471 34.597 122.761 34.7625 123.129C34.928 123.497 35.0107 123.912 35.0107 124.374C35.0107 124.836 34.928 125.252 34.7625 125.62C34.597 125.988 34.3588 126.28 34.0478 126.497C33.7397 126.711 33.3702 126.818 32.9394 126.818ZM30.8125 128.744V122.068H31.493V125.47H31.5786V128.744H30.8125ZM32.8453 126.12C33.1506 126.12 33.403 126.043 33.6027 125.889C33.8025 125.735 33.9522 125.527 34.0521 125.264C34.1519 124.999 34.2019 124.702 34.2019 124.374C34.2019 124.049 34.1519 123.755 34.0521 123.493C33.9551 123.23 33.8039 123.022 33.5985 122.868C33.3959 122.714 33.1377 122.637 32.8239 122.637C32.5243 122.637 32.2761 122.711 32.0793 122.859C31.8824 123.005 31.7355 123.209 31.6385 123.471C31.5415 123.731 31.493 124.032 31.493 124.374C31.493 124.711 31.54 125.012 31.6342 125.277C31.7312 125.54 31.8795 125.747 32.0793 125.898C32.279 126.046 32.5343 126.12 32.8453 126.12ZM37.9174 126.818C37.4581 126.818 37.0615 126.714 36.7277 126.505C36.3968 126.297 36.1414 126.009 35.9617 125.641C35.7819 125.273 35.6921 124.851 35.6921 124.374C35.6921 123.889 35.7834 123.464 35.966 123.099C36.1485 122.734 36.4067 122.45 36.7405 122.247C37.0743 122.042 37.4666 121.939 37.9174 121.939C38.3796 121.939 38.7776 122.043 39.1114 122.252C39.4452 122.457 39.7005 122.744 39.8774 123.112C40.0571 123.477 40.147 123.898 40.147 124.374C40.147 124.856 40.0571 125.282 39.8774 125.65C39.6977 126.015 39.4409 126.301 39.1071 126.51C38.7733 126.715 38.3767 126.818 37.9174 126.818ZM37.9174 126.095C38.3967 126.095 38.7533 125.935 38.9873 125.615C39.2212 125.296 39.3382 124.882 39.3382 124.374C39.3382 123.852 39.2198 123.437 38.983 123.129C38.7462 122.818 38.391 122.662 37.9174 122.662C37.595 122.662 37.3297 122.735 37.1214 122.881C36.9131 123.026 36.7577 123.227 36.655 123.484C36.5522 123.741 36.5009 124.038 36.5009 124.374C36.5009 124.893 36.6207 125.31 36.8604 125.624C37.1 125.938 37.4524 126.095 37.9174 126.095ZM42.9679 126.822C42.5314 126.819 42.1591 126.725 41.851 126.54C41.5428 126.351 41.3032 126.076 41.132 125.714C40.9608 125.351 40.8653 124.908 40.8453 124.383C40.8339 124.14 40.8367 123.874 40.8539 123.583C40.8738 123.292 40.9052 123.012 40.948 122.744C40.9936 122.476 41.0507 122.254 41.1192 122.08C41.1962 121.872 41.3046 121.68 41.4444 121.503C41.5871 121.323 41.7468 121.175 41.9237 121.058C42.1035 120.935 42.3046 120.839 42.5271 120.771C42.7497 120.702 42.9822 120.65 43.2247 120.613C43.47 120.573 43.7154 120.538 43.9608 120.51C44.2061 120.479 44.4401 120.441 44.6626 120.399L44.7396 121.083C44.5827 121.118 44.3973 121.148 44.1833 121.173C43.9693 121.196 43.7468 121.223 43.5157 121.255C43.2874 121.286 43.0678 121.33 42.8566 121.387C42.6484 121.441 42.4686 121.517 42.3174 121.614C42.0949 121.748 41.9237 121.949 41.8039 122.217C41.6869 122.483 41.6156 122.781 41.5899 123.112C41.7668 122.838 41.9965 122.637 42.2789 122.508C42.5614 122.38 42.8624 122.316 43.1819 122.316C43.5956 122.316 43.9522 122.413 44.2518 122.607C44.5513 122.798 44.781 123.062 44.9408 123.399C45.1034 123.735 45.1847 124.119 45.1847 124.55C45.1847 125.006 45.0934 125.406 44.9108 125.748C44.7282 126.09 44.47 126.356 44.1362 126.544C43.8053 126.732 43.4158 126.825 42.9679 126.822ZM43.015 126.099C43.4629 126.099 43.8024 125.961 44.0335 125.684C44.2646 125.404 44.3801 125.033 44.3801 124.571C44.3801 124.098 44.2603 123.725 44.0207 123.454C43.781 123.18 43.4444 123.043 43.0107 123.043C42.5713 123.043 42.2347 123.18 42.0008 123.454C41.7697 123.725 41.6541 124.098 41.6541 124.571C41.6541 125.048 41.7711 125.421 42.005 125.692C42.239 125.963 42.5756 126.099 43.015 126.099ZM46.125 126.689V122.068H46.8868V124.015H49.3175V122.068H50.0793V126.689H49.3175V124.738H46.8868V126.689H46.125ZM53.2808 126.818C52.8272 126.818 52.4307 126.718 52.0912 126.518C51.7545 126.316 51.492 126.035 51.3037 125.675C51.1154 125.313 51.0213 124.891 51.0213 124.408C51.0213 123.904 51.114 123.467 51.2994 123.099C51.4849 122.728 51.7431 122.443 52.074 122.243C52.4078 122.041 52.7987 121.939 53.2466 121.939C53.7116 121.939 54.1068 122.046 54.432 122.26C54.7601 122.474 55.0055 122.779 55.1681 123.176C55.3336 123.573 55.4049 124.045 55.3821 124.593H54.6118V124.319C54.6032 123.751 54.4877 123.327 54.2651 123.048C54.0426 122.765 53.7116 122.624 53.2723 122.624C52.8015 122.624 52.4435 122.775 52.1981 123.078C51.9528 123.38 51.8301 123.814 51.8301 124.379C51.8301 124.923 51.9528 125.346 52.1981 125.645C52.4435 125.945 52.793 126.095 53.2466 126.095C53.5519 126.095 53.8172 126.025 54.0426 125.885C54.268 125.745 54.4449 125.544 54.5732 125.282L55.305 125.534C55.1253 125.942 54.8543 126.259 54.4919 126.484C54.1325 126.707 53.7288 126.818 53.2808 126.818ZM51.5733 124.593V123.981H54.9884V124.593H51.5733ZM58.3377 126.818C57.884 126.818 57.4875 126.718 57.148 126.518C56.8113 126.316 56.5488 126.035 56.3605 125.675C56.1722 125.313 56.0781 124.891 56.0781 124.408C56.0781 123.904 56.1708 123.467 56.3563 123.099C56.5417 122.728 56.7999 122.443 57.1308 122.243C57.4646 122.041 57.8555 121.939 58.3034 121.939C58.7685 121.939 59.1636 122.046 59.4888 122.26C59.8169 122.474 60.0623 122.779 60.2249 123.176C60.3904 123.573 60.4617 124.045 60.4389 124.593H59.6686V124.319C59.66 123.751 59.5445 123.327 59.3219 123.048C59.0994 122.765 58.7685 122.624 58.3291 122.624C57.8583 122.624 57.5003 122.775 57.2549 123.078C57.0096 123.38 56.8869 123.814 56.8869 124.379C56.8869 124.923 57.0096 125.346 57.2549 125.645C57.5003 125.945 57.8498 126.095 58.3034 126.095C58.6087 126.095 58.874 126.025 59.0994 125.885C59.3248 125.745 59.5017 125.544 59.6301 125.282L60.3618 125.534C60.1821 125.942 59.9111 126.259 59.5487 126.484C59.1893 126.707 58.7856 126.818 58.3377 126.818ZM56.6301 124.593V123.981H60.0452V124.593H56.6301ZM65.0737 126.818C64.6143 126.818 64.2178 126.714 63.884 126.505C63.553 126.297 63.2977 126.009 63.118 125.641C62.9382 125.273 62.8484 124.851 62.8484 124.374C62.8484 123.889 62.9396 123.464 63.1222 123.099C63.3048 122.734 63.563 122.45 63.8968 122.247C64.2306 122.042 64.6229 121.939 65.0737 121.939C65.5359 121.939 65.9339 122.043 66.2677 122.252C66.6015 122.457 66.8568 122.744 67.0337 123.112C67.2134 123.477 67.3033 123.898 67.3033 124.374C67.3033 124.856 67.2134 125.282 67.0337 125.65C66.8539 126.015 66.5972 126.301 66.2634 126.51C65.9296 126.715 65.533 126.818 65.0737 126.818ZM65.0737 126.095C65.553 126.095 65.9096 125.935 66.1435 125.615C66.3775 125.296 66.4945 124.882 66.4945 124.374C66.4945 123.852 66.3761 123.437 66.1393 123.129C65.9025 122.818 65.5473 122.662 65.0737 122.662C64.7513 122.662 64.486 122.735 64.2777 122.881C64.0694 123.026 63.9139 123.227 63.8112 123.484C63.7085 123.741 63.6572 124.038 63.6572 124.374C63.6572 124.893 63.777 125.31 64.0166 125.624C64.2563 125.938 64.6086 126.095 65.0737 126.095ZM69.9547 126.689V122.068H73.742V126.689H72.9803V122.791H70.7164V126.689H69.9547ZM76.9091 126.818C76.4498 126.818 76.0532 126.714 75.7194 126.505C75.3885 126.297 75.1331 126.009 74.9534 125.641C74.7736 125.273 74.6838 124.851 74.6838 124.374C74.6838 123.889 74.7751 123.464 74.9577 123.099C75.1403 122.734 75.3984 122.45 75.7322 122.247C76.066 122.042 76.4583 121.939 76.9091 121.939C77.3713 121.939 77.7693 122.043 78.1031 122.252C78.4369 122.457 78.6922 122.744 78.8691 123.112C79.0488 123.477 79.1387 123.898 79.1387 124.374C79.1387 124.856 79.0488 125.282 78.8691 125.65C78.6894 126.015 78.4326 126.301 78.0988 126.51C77.765 126.715 77.3684 126.818 76.9091 126.818ZM76.9091 126.095C77.3884 126.095 77.745 125.935 77.979 125.615C78.2129 125.296 78.3299 124.882 78.3299 124.374C78.3299 123.852 78.2115 123.437 77.9747 123.129C77.7379 122.818 77.3827 122.662 76.9091 122.662C76.5867 122.662 76.3214 122.735 76.1131 122.881C75.9049 123.026 75.7494 123.227 75.6467 123.484C75.544 123.741 75.4926 124.038 75.4926 124.374C75.4926 124.893 75.6124 125.31 75.8521 125.624C76.0917 125.938 76.4441 126.095 76.9091 126.095ZM79.7386 127.717V126.06C79.9982 126.06 80.1836 125.976 80.2949 125.808C80.4062 125.637 80.496 125.356 80.5645 124.965C80.6102 124.719 80.6472 124.457 80.6758 124.177C80.7043 123.898 80.7286 123.587 80.7485 123.244C80.7714 122.899 80.7928 122.507 80.8127 122.068H83.9967V126.06H84.446V127.717H83.7185V126.689H80.4661V127.717H79.7386ZM80.9111 126.06H83.2349V122.697H81.5017C81.4932 122.899 81.4817 123.112 81.4675 123.334C81.4532 123.554 81.4361 123.774 81.4161 123.993C81.399 124.213 81.3776 124.421 81.3519 124.618C81.3291 124.812 81.302 124.986 81.2706 125.14C81.2335 125.354 81.1907 125.535 81.1422 125.684C81.0937 125.832 81.0167 125.958 80.9111 126.06ZM85.3006 126.689V122.068H89.088V126.689H88.3262V122.791H86.0624V126.689H85.3006ZM94.0695 122.068V126.689H93.3335V123.283L90.9113 126.689H90.2822V122.068H91.0183V125.427L93.4447 122.068H94.0695ZM97.2152 126.818C96.7473 126.818 96.3493 126.714 96.0212 126.505C95.696 126.294 95.4478 126.005 95.2766 125.637C95.1054 125.269 95.017 124.849 95.0113 124.379C95.017 123.896 95.1069 123.473 95.2809 123.108C95.4578 122.739 95.7103 122.453 96.0384 122.247C96.3665 122.042 96.7616 121.939 97.2238 121.939C97.7116 121.939 98.131 122.059 98.4819 122.299C98.8357 122.538 99.0725 122.866 99.1923 123.283L98.4391 123.51C98.3421 123.242 98.1838 123.033 97.9641 122.885C97.7473 122.737 97.4977 122.662 97.2152 122.662C96.8985 122.662 96.6375 122.737 96.4321 122.885C96.2267 123.031 96.074 123.233 95.9742 123.493C95.8743 123.749 95.823 124.045 95.8201 124.379C95.8258 124.892 95.9442 125.307 96.1753 125.624C96.4093 125.938 96.7559 126.095 97.2152 126.095C97.5176 126.095 97.7687 126.026 97.9684 125.889C98.1681 125.749 98.3193 125.548 98.422 125.286L99.1923 125.487C99.0326 125.918 98.7829 126.247 98.4434 126.475C98.1039 126.704 97.6945 126.818 97.2152 126.818ZM100.061 126.689L100.066 122.068H100.836V124.293L102.775 122.068H103.763L101.722 124.379L104.003 126.689H102.937L100.836 124.464V126.689H100.061ZM106.264 126.818C105.811 126.818 105.414 126.718 105.075 126.518C104.738 126.316 104.476 126.035 104.287 125.675C104.099 125.313 104.005 124.891 104.005 124.408C104.005 123.904 104.098 123.467 104.283 123.099C104.468 122.728 104.727 122.443 105.058 122.243C105.391 122.041 105.782 121.939 106.23 121.939C106.695 121.939 107.09 122.046 107.416 122.26C107.744 122.474 107.989 122.779 108.152 123.176C108.317 123.573 108.388 124.045 108.366 124.593H107.595V124.319C107.587 123.751 107.471 123.327 107.249 123.048C107.026 122.765 106.695 122.624 106.256 122.624C105.785 122.624 105.427 122.775 105.182 123.078C104.936 123.38 104.814 123.814 104.814 124.379C104.814 124.923 104.936 125.346 105.182 125.645C105.427 125.945 105.777 126.095 106.23 126.095C106.535 126.095 106.801 126.025 107.026 125.885C107.252 125.745 107.428 125.544 107.557 125.282L108.289 125.534C108.109 125.942 107.838 126.259 107.476 126.484C107.116 126.707 106.712 126.818 106.264 126.818ZM104.557 124.593V123.981H107.972V124.593H104.557Z" fill="#7445FF"/>
</g>
</g>
</g>
<defs>
<filter id="filter0_d_569_8795" x="0.331878" y="0.165939" width="216.336" height="144.336" filterUnits="userSpaceOnUse" color-interpolation-filters="sRGB">
<feFlood flood-opacity="0" result="BackgroundImageFix"/>
<feColorMatrix in="SourceAlpha" type="matrix" values="0 0 0 0 0 0 0 0 0 0 0 0 0 0 0 0 0 0 127 0" result="hardAlpha"/>
<feOffset dy="1.83406"/>
<feGaussianBlur stdDeviation="1.83406"/>
<feComposite in2="hardAlpha" operator="out"/>
<feColorMatrix type="matrix" values="0 0 0 0 0.580392 0 0 0 0 0.639216 0 0 0 0 0.721569 0 0 0 0.15 0"/>
<feBlend mode="normal" in2="BackgroundImageFix" result="effect1_dropShadow_569_8795"/>
<feBlend mode="normal" in="SourceGraphic" in2="effect1_dropShadow_569_8795" result="shape"/>
</filter>
<clipPath id="clip0_569_8795">
<rect x="4" y="2" width="209" height="137" rx="9.78166" fill="white"/>
</clipPath>
<clipPath id="clip1_569_8795">
<rect x="148.131" y="60.2227" width="55.7817" height="14.6725" rx="7.33624" fill="white"/>
</clipPath>
<clipPath id="clip2_569_8795">
<rect x="13.7816" y="88.3447" width="190.131" height="22.0087" rx="3.66812" fill="white"/>
</clipPath>
<clipPath id="clip3_569_8795">
<rect width="95" height="13" fill="white" transform="translate(13.7815 117.689)"/>
</clipPath>
</defs>
</svg>
